<svg width="441" height="115" viewBox="0 0 441 115" fill="none" xmlns="http://www.w3.org/2000/svg">
<rect width="440.4" height="78" fill="black"/>
<rect x="9" y="15" width="114" height="48" rx="10.4608" fill="#760A6B"/>
<rect x="318" y="15" width="114" height="48" rx="10.4608" fill="#760A6B"/>
<rect x="134" y="15" width="173" height="48" rx="10.4608" fill="#760A6B"/>
<path d="M62.4305 96.7212L66.1015 94.5912H67.8916V110H65.9655V96.6759L63.2916 98.2168L62.4305 96.7212Z" fill="black"/>
<path d="M375.431 96.7212L379.101 94.5912H380.892V110H378.966V96.6759L376.292 98.2168L375.431 96.7212Z" fill="black"/>
<path d="M226.857 110H218.065V108.504C218.065 107.371 218.201 106.42 218.473 105.649C218.76 104.879 219.138 104.244 219.606 103.746C220.089 103.232 220.626 102.824 221.215 102.522L222.688 101.774C223.383 101.412 223.934 101.034 224.342 100.641C224.765 100.249 224.976 99.6821 224.976 98.9419V98.5567C224.976 97.7107 224.735 97.0989 224.251 96.7212C223.783 96.3436 223.088 96.1547 222.166 96.1547C221.653 96.1547 221.109 96.2227 220.535 96.3587C219.961 96.4795 219.326 96.691 218.632 96.9932L217.997 95.339C218.752 94.9915 219.477 94.7423 220.172 94.5912C220.882 94.4401 221.562 94.3646 222.212 94.3646C223.889 94.3646 225.09 94.7574 225.815 95.5429C226.54 96.3134 226.902 97.318 226.902 98.5567V98.9419C226.902 99.7577 226.744 100.437 226.427 100.981C226.124 101.525 225.717 101.986 225.203 102.364C224.704 102.726 224.168 103.051 223.594 103.338L222.121 104.108C221.411 104.486 220.882 105.007 220.535 105.672C220.203 106.337 220.021 107.183 219.991 108.21H226.857V110Z" fill="black"/>
</svg>
