<svg width="441" height="121" viewBox="0 0 441 121" fill="none" xmlns="http://www.w3.org/2000/svg">
<rect width="440.4" height="78" fill="black"/>
<rect x="16.8" y="14.4" width="70.2543" height="47.1857" rx="10.4608" fill="#760A6B"/>
<rect x="100" y="14" width="70.2543" height="47.1857" rx="10.4608" fill="#760A6B"/>
<rect x="183" y="15" width="70.2543" height="47.1857" rx="10.4608" fill="#760A6B"/>
<rect x="336" y="15" width="91" height="47" rx="10.4608" fill="#760A6B"/>
<rect x="266" y="14" width="57" height="47" rx="10.4608" fill="#760A6B"/>
<path d="M54.4305 102.721L58.1015 100.591H59.8916V116H57.9655V102.676L55.2916 104.217L54.4305 102.721Z" fill="black"/>
<path d="M130.431 102.721L134.101 100.591H135.892V116H133.966V102.676L131.292 104.217L130.431 102.721Z" fill="black"/>
<path d="M215.431 102.721L219.101 100.591H220.892V116H218.966V102.676L216.292 104.217L215.431 102.721Z" fill="black"/>
<path d="M298.857 116H290.065V114.504C290.065 113.371 290.201 112.42 290.473 111.649C290.76 110.879 291.138 110.244 291.606 109.746C292.089 109.232 292.626 108.824 293.215 108.522L294.688 107.774C295.383 107.412 295.934 107.034 296.342 106.641C296.765 106.249 296.976 105.682 296.976 104.942V104.557C296.976 103.711 296.735 103.099 296.251 102.721C295.783 102.344 295.088 102.155 294.166 102.155C293.653 102.155 293.109 102.223 292.535 102.359C291.961 102.48 291.326 102.691 290.632 102.993L289.997 101.339C290.752 100.992 291.477 100.742 292.172 100.591C292.882 100.44 293.562 100.365 294.212 100.365C295.889 100.365 297.09 100.757 297.815 101.543C298.54 102.313 298.902 103.318 298.902 104.557V104.942C298.902 105.758 298.744 106.437 298.427 106.981C298.124 107.525 297.717 107.986 297.203 108.364C296.704 108.726 296.168 109.051 295.594 109.338L294.121 110.108C293.411 110.486 292.882 111.007 292.535 111.672C292.203 112.337 292.021 113.183 291.991 114.21H298.857V116Z" fill="black"/>
<path d="M385.789 111.989C385.789 113.228 385.404 114.248 384.633 115.048C383.863 115.834 382.624 116.227 380.917 116.227C380.237 116.227 379.527 116.151 378.787 116C378.062 115.834 377.307 115.577 376.521 115.23L377.11 113.598C377.866 113.9 378.538 114.119 379.127 114.255C379.731 114.391 380.313 114.459 380.872 114.459C381.809 114.459 382.534 114.263 383.047 113.87C383.576 113.477 383.84 112.835 383.84 111.944V111.581C383.84 110.826 383.621 110.222 383.183 109.768C382.745 109.315 382.073 109.089 381.166 109.089H378.9V107.367H381.166C382.028 107.367 382.662 107.155 383.07 106.732C383.478 106.294 383.682 105.705 383.682 104.965V104.647C383.682 103.756 383.44 103.122 382.957 102.744C382.473 102.351 381.801 102.155 380.94 102.155C380.411 102.155 379.867 102.223 379.308 102.359C378.749 102.48 378.115 102.691 377.405 102.993L376.77 101.339C377.526 100.992 378.251 100.742 378.946 100.591C379.656 100.44 380.336 100.365 380.985 100.365C382.617 100.365 383.803 100.757 384.543 101.543C385.283 102.328 385.653 103.348 385.653 104.602V104.919C385.653 105.675 385.472 106.339 385.109 106.913C384.747 107.472 384.256 107.91 383.636 108.228C384.301 108.53 384.822 108.975 385.2 109.565C385.593 110.139 385.789 110.826 385.789 111.627V111.989Z" fill="black"/>
</svg>
