<svg width="441" height="120" viewBox="0 0 441 120" fill="none" xmlns="http://www.w3.org/2000/svg">
<rect width="440.4" height="78" fill="black"/>
<rect x="16.8" y="14" width="70.2543" height="47.1857" rx="10.4608" fill="#760A6B"/>
<rect x="100" y="14" width="70.2543" height="47.1857" rx="10.4608" fill="#760A6B"/>
<rect x="183" y="15" width="93" height="47" rx="10.4608" fill="#760A6B"/>
<rect x="289" y="15" width="57" height="47" rx="10.4608" fill="#760A6B"/>
<path d="M51.269 108.95V107.318H57.6138V108.95H51.269ZM58.065 101.721L61.7359 99.5912H63.5261V115H61.6V101.676L58.9261 103.217L58.065 101.721Z" fill="black"/>
<path d="M132.431 101.721L136.101 99.5912H137.892V115H135.966V101.676L133.292 103.217L132.431 101.721Z" fill="black"/>
<path d="M239.857 115H231.065V113.504C231.065 112.371 231.201 111.42 231.473 110.649C231.76 109.879 232.138 109.244 232.606 108.746C233.089 108.232 233.626 107.824 234.215 107.522L235.688 106.774C236.383 106.412 236.934 106.034 237.342 105.641C237.765 105.249 237.976 104.682 237.976 103.942V103.557C237.976 102.711 237.735 102.099 237.251 101.721C236.783 101.344 236.088 101.155 235.166 101.155C234.653 101.155 234.109 101.223 233.535 101.359C232.961 101.48 232.326 101.691 231.632 101.993L230.997 100.339C231.752 99.9915 232.477 99.7423 233.172 99.5912C233.882 99.4401 234.562 99.3646 235.212 99.3646C236.889 99.3646 238.09 99.7574 238.815 100.543C239.54 101.313 239.902 102.318 239.902 103.557V103.942C239.902 104.758 239.744 105.437 239.427 105.981C239.124 106.525 238.717 106.986 238.203 107.364C237.704 107.726 237.168 108.051 236.594 108.338L235.121 109.108C234.411 109.486 233.882 110.007 233.535 110.672C233.203 111.337 233.021 112.183 232.991 113.21H239.857V115Z" fill="black"/>
<path d="M314.541 106.978L314.994 99.5912H322.653V101.404H316.739L316.467 105.823C317.132 105.596 317.849 105.483 318.62 105.483C320.04 105.483 321.173 105.86 322.019 106.616C322.865 107.371 323.288 108.489 323.288 109.969V110.649C323.288 111.994 322.895 113.097 322.109 113.958C321.324 114.804 320.062 115.227 318.325 115.227C317.645 115.227 316.935 115.151 316.195 115C315.47 114.834 314.715 114.577 313.929 114.23L314.541 112.598C315.281 112.915 315.953 113.142 316.558 113.278C317.162 113.399 317.743 113.459 318.302 113.459C319.239 113.459 319.972 113.248 320.5 112.825C321.029 112.387 321.294 111.661 321.294 110.649V109.969C321.294 109.139 321.052 108.474 320.568 107.975C320.1 107.477 319.383 107.228 318.416 107.228C317.963 107.228 317.517 107.288 317.079 107.409C316.641 107.515 316.18 107.673 315.697 107.885L314.541 106.978Z" fill="black"/>
</svg>
