<svg width="356" height="195" viewBox="0 0 356 195" fill="none" xmlns="http://www.w3.org/2000/svg">
<rect width="258" height="195" fill="black"/>
<rect x="11" y="21" width="236" height="39" rx="8.71736" fill="#760A6B"/>
<rect x="11" y="78" width="236" height="39" rx="8.71736" fill="#760A6B"/>
<rect x="11" y="135" width="236" height="39" rx="8.71736" fill="#760A6B"/>
<path d="M346.857 49H338.065V47.5044C338.065 46.3714 338.201 45.4197 338.473 44.6493C338.76 43.8788 339.138 43.2444 339.606 42.7458C340.089 42.2322 340.626 41.8243 341.215 41.5222L342.688 40.7744C343.383 40.4119 343.934 40.0342 344.342 39.6414C344.765 39.2486 344.976 38.6821 344.976 37.9419V37.5567C344.976 36.7107 344.735 36.0989 344.251 35.7212C343.783 35.3436 343.088 35.1547 342.166 35.1547C341.653 35.1547 341.109 35.2227 340.535 35.3587C339.961 35.4795 339.326 35.691 338.632 35.9932L337.997 34.339C338.752 33.9915 339.477 33.7423 340.172 33.5912C340.882 33.4401 341.562 33.3646 342.212 33.3646C343.889 33.3646 345.09 33.7574 345.815 34.5429C346.54 35.3134 346.902 36.318 346.902 37.5567V37.9419C346.902 38.7577 346.744 39.4375 346.427 39.9813C346.124 40.5252 345.717 40.9859 345.203 41.3636C344.704 41.7261 344.168 42.0509 343.594 42.338L342.121 43.1084C341.411 43.4861 340.882 44.0072 340.535 44.6719C340.203 45.3366 340.021 46.1826 339.991 47.2099H346.857V49Z" fill="black"/>
<path d="M346.857 106H338.065V104.504C338.065 103.371 338.201 102.42 338.473 101.649C338.76 100.879 339.138 100.244 339.606 99.7458C340.089 99.2322 340.626 98.8243 341.215 98.5222L342.688 97.7744C343.383 97.4119 343.934 97.0342 344.342 96.6414C344.765 96.2486 344.976 95.6821 344.976 94.9419V94.5567C344.976 93.7107 344.735 93.0989 344.251 92.7212C343.783 92.3436 343.088 92.1547 342.166 92.1547C341.653 92.1547 341.109 92.2227 340.535 92.3587C339.961 92.4795 339.326 92.691 338.632 92.9932L337.997 91.339C338.752 90.9915 339.477 90.7423 340.172 90.5912C340.882 90.4401 341.562 90.3646 342.212 90.3646C343.889 90.3646 345.09 90.7574 345.815 91.5429C346.54 92.3134 346.902 93.318 346.902 94.5567V94.9419C346.902 95.7577 346.744 96.4375 346.427 96.9813C346.124 97.5252 345.717 97.9859 345.203 98.3636C344.704 98.7261 344.168 99.0509 343.594 99.338L342.121 100.108C341.411 100.486 340.882 101.007 340.535 101.672C340.203 102.337 340.021 103.183 339.991 104.21H346.857V106Z" fill="black"/>
<path d="M341.013 157.018C341.013 159.118 340.537 160.681 339.585 161.708C338.633 162.721 337.319 163.227 335.642 163.227C335.053 163.227 334.419 163.159 333.739 163.023C333.074 162.887 332.364 162.645 331.609 162.298L332.289 160.643C332.953 160.93 333.558 161.142 334.101 161.278C334.66 161.399 335.159 161.459 335.597 161.459C336.67 161.459 337.531 161.127 338.18 160.462C338.83 159.797 339.155 158.649 339.155 157.018V155.681C338.611 156.149 338.029 156.527 337.41 156.814C336.79 157.101 336.133 157.244 335.438 157.244C334.109 157.244 333.067 156.829 332.311 155.998C331.556 155.152 331.178 154.042 331.178 152.667V151.987C331.178 151.096 331.367 150.303 331.745 149.608C332.138 148.913 332.689 148.369 333.399 147.976C334.124 147.569 334.985 147.365 335.982 147.365C337.599 147.365 338.837 147.916 339.698 149.019C340.575 150.122 341.013 151.67 341.013 153.664V157.018ZM333.059 152.667C333.059 153.528 333.286 154.215 333.739 154.729C334.207 155.243 334.857 155.5 335.688 155.5C336.322 155.5 336.926 155.364 337.5 155.092C338.09 154.805 338.641 154.419 339.155 153.936V153.664C339.155 152.138 338.875 151.005 338.316 150.265C337.772 149.525 336.987 149.155 335.96 149.155C335.053 149.155 334.343 149.419 333.83 149.948C333.316 150.477 333.059 151.156 333.059 151.987V152.667ZM353.803 157.018C353.803 159.118 353.327 160.681 352.376 161.708C351.424 162.721 350.11 163.227 348.433 163.227C347.844 163.227 347.209 163.159 346.529 163.023C345.865 162.887 345.155 162.645 344.399 162.298L345.079 160.643C345.744 160.93 346.348 161.142 346.892 161.278C347.451 161.399 347.949 161.459 348.388 161.459C349.46 161.459 350.321 161.127 350.971 160.462C351.62 159.797 351.945 158.649 351.945 157.018V155.681C351.401 156.149 350.82 156.527 350.2 156.814C349.581 157.101 348.924 157.244 348.229 157.244C346.9 157.244 345.857 156.829 345.102 155.998C344.346 155.152 343.969 154.042 343.969 152.667V151.987C343.969 151.096 344.158 150.303 344.535 149.608C344.928 148.913 345.479 148.369 346.19 147.976C346.915 147.569 347.776 147.365 348.773 147.365C350.389 147.365 351.628 147.916 352.489 149.019C353.365 150.122 353.803 151.67 353.803 153.664V157.018ZM345.85 152.667C345.85 153.528 346.076 154.215 346.529 154.729C346.998 155.243 347.647 155.5 348.478 155.5C349.113 155.5 349.717 155.364 350.291 155.092C350.88 154.805 351.432 154.419 351.945 153.936V153.664C351.945 152.138 351.666 151.005 351.107 150.265C350.563 149.525 349.777 149.155 348.75 149.155C347.844 149.155 347.134 149.419 346.62 149.948C346.106 150.477 345.85 151.156 345.85 151.987V152.667Z" fill="black"/>
</svg>
