<svg width="166" height="184" viewBox="0 0 166 184" fill="none" xmlns="http://www.w3.org/2000/svg">
<rect width="165.137" height="156" transform="translate(0 28)" fill="black"/>
<rect x="8" y="75" width="34" height="62" rx="10.1033" fill="#760A6B"/>
<rect x="47" y="63" width="34" height="86" rx="10.1033" fill="#760A6B"/>
<rect x="86" y="88" width="34" height="37" rx="10.1033" fill="#760A6B"/>
<rect x="125" y="84" width="34" height="45" rx="10.1033" fill="#760A6B"/>
<path d="M3.006 12.906V13.968C3.006 14.736 3.144 15.312 3.42 15.696C3.696 16.08 4.14 16.272 4.752 16.272C5.052 16.272 5.388 16.236 5.76 16.164C6.144 16.08 6.558 15.954 7.002 15.786L7.596 17.532C7.056 17.748 6.546 17.91 6.066 18.018C5.586 18.126 5.112 18.18 4.644 18.18C3.444 18.18 2.526 17.796 1.89 17.028C1.254 16.26 0.936 15.24 0.936 13.968V12.906C0.936 11.622 1.254 10.602 1.89 9.846C2.526 9.078 3.444 8.694 4.644 8.694C5.1 8.694 5.562 8.748 6.03 8.856C6.498 8.964 6.99 9.12 7.506 9.324L6.912 11.106C6.048 10.77 5.328 10.602 4.752 10.602C4.14 10.602 3.696 10.794 3.42 11.178C3.144 11.55 3.006 12.126 3.006 12.906ZM16.4204 17.478C15.7964 17.73 15.2084 17.91 14.6564 18.018C14.1044 18.126 13.5824 18.18 13.0904 18.18C11.7344 18.18 10.7084 17.796 10.0124 17.028C9.31636 16.26 8.96836 15.24 8.96836 13.968V12.888C8.96836 12.036 9.12436 11.298 9.43636 10.674C9.74836 10.05 10.1924 9.564 10.7684 9.216C11.3444 8.868 12.0224 8.694 12.8024 8.694C13.4384 8.694 14.0324 8.826 14.5844 9.09C15.1484 9.342 15.6044 9.744 15.9524 10.296C16.3124 10.836 16.4924 11.532 16.4924 12.384C16.4924 12.636 16.4744 12.906 16.4384 13.194C16.4024 13.47 16.3424 13.764 16.2584 14.076H10.9664C10.9904 14.82 11.1764 15.378 11.5244 15.75C11.8724 16.122 12.4304 16.308 13.1984 16.308C13.6064 16.308 14.0264 16.26 14.4584 16.164C14.9024 16.068 15.3584 15.924 15.8264 15.732L16.4204 17.478ZM12.8024 10.44C12.2504 10.44 11.8184 10.62 11.5064 10.98C11.2064 11.328 11.0324 11.832 10.9844 12.492H14.4404C14.4524 12.432 14.4584 12.378 14.4584 12.33C14.4584 12.27 14.4584 12.216 14.4584 12.168C14.4584 11.592 14.2964 11.16 13.9724 10.872C13.6484 10.584 13.2584 10.44 12.8024 10.44ZM23.3411 10.62C23.0411 10.62 22.6991 10.692 22.3151 10.836C21.9311 10.98 21.4751 11.262 20.9471 11.682V18H18.8771V8.874H20.8391V10.098C21.4031 9.606 21.9371 9.252 22.4411 9.036C22.9451 8.808 23.4551 8.694 23.9711 8.694C24.8471 8.694 25.5131 8.976 25.9691 9.54C26.4251 10.092 26.6531 10.872 26.6531 11.88V18H24.5831V12.132C24.5831 11.124 24.1691 10.62 23.3411 10.62ZM34.8788 17.694C34.5668 17.838 34.2068 17.952 33.7988 18.036C33.3908 18.132 32.9768 18.18 32.5568 18.18C31.8608 18.18 31.3028 18.036 30.8828 17.748C30.4628 17.46 30.1568 17.058 29.9648 16.542C29.7848 16.026 29.6948 15.438 29.6948 14.778V10.674H28.2188V8.874H29.6948V6.498H31.7648V8.874H34.6088V10.674H31.7648V14.778C31.7648 15.33 31.8668 15.714 32.0708 15.93C32.2868 16.134 32.5928 16.236 32.9888 16.236C33.1808 16.236 33.3848 16.218 33.6008 16.182C33.8288 16.134 34.0808 16.056 34.3568 15.948L34.8788 17.694ZM43.4731 17.478C42.8491 17.73 42.2611 17.91 41.7091 18.018C41.1571 18.126 40.6351 18.18 40.1431 18.18C38.7871 18.18 37.7611 17.796 37.0651 17.028C36.3691 16.26 36.0211 15.24 36.0211 13.968V12.888C36.0211 12.036 36.1771 11.298 36.4891 10.674C36.8011 10.05 37.2451 9.564 37.8211 9.216C38.3971 8.868 39.0751 8.694 39.8551 8.694C40.4911 8.694 41.0851 8.826 41.6371 9.09C42.2011 9.342 42.6571 9.744 43.0051 10.296C43.3651 10.836 43.5451 11.532 43.5451 12.384C43.5451 12.636 43.5271 12.906 43.4911 13.194C43.4551 13.47 43.3951 13.764 43.3111 14.076H38.0191C38.0431 14.82 38.2291 15.378 38.5771 15.75C38.9251 16.122 39.4831 16.308 40.2511 16.308C40.6591 16.308 41.0791 16.26 41.5111 16.164C41.9551 16.068 42.4111 15.924 42.8791 15.732L43.4731 17.478ZM39.8551 10.44C39.3031 10.44 38.8711 10.62 38.5591 10.98C38.2591 11.328 38.0851 11.832 38.0371 12.492H41.4931C41.5051 12.432 41.5111 12.378 41.5111 12.33C41.5111 12.27 41.5111 12.216 41.5111 12.168C41.5111 11.592 41.3491 11.16 41.0251 10.872C40.7011 10.584 40.3111 10.44 39.8551 10.44ZM51.0778 10.764C50.5138 10.764 49.9738 10.854 49.4578 11.034C48.9538 11.202 48.4678 11.478 47.9998 11.862V18H45.9298V8.874H47.8918V10.278C48.5038 9.702 49.0498 9.294 49.5298 9.054C50.0098 8.814 50.5258 8.694 51.0778 8.694V10.764Z" fill="black"/>
</svg>
