<svg width="165" height="182" viewBox="0 0 165 182" fill="none" xmlns="http://www.w3.org/2000/svg">
<rect width="165" height="156" transform="translate(0 26)" fill="black"/>
<rect x="7" y="113" width="34" height="62" rx="10.1033" fill="#760A6B"/>
<rect x="46" y="89" width="34" height="86" rx="10.1033" fill="#760A6B"/>
<rect x="85" y="138" width="34" height="37" rx="10.1033" fill="#760A6B"/>
<rect x="124" y="130" width="34" height="45" rx="10.1033" fill="#760A6B"/>
<path d="M7.956 13.302H3.852V18H1.692V5.76H8.496V7.83H3.852V11.232H7.956V13.302ZM10.4559 15.426V4.68H12.5259V15.426C12.5259 15.606 12.5679 15.78 12.6519 15.948C12.7479 16.104 12.9279 16.182 13.1919 16.182H13.4799V18.09H12.9759C12.2919 18.09 11.7699 17.958 11.4099 17.694C11.0499 17.43 10.7979 17.094 10.6539 16.686C10.5219 16.278 10.4559 15.858 10.4559 15.426ZM22.4145 17.478C21.7905 17.73 21.2025 17.91 20.6505 18.018C20.0985 18.126 19.5765 18.18 19.0845 18.18C17.7285 18.18 16.7025 17.796 16.0065 17.028C15.3105 16.26 14.9625 15.24 14.9625 13.968V12.888C14.9625 12.036 15.1185 11.298 15.4305 10.674C15.7425 10.05 16.1865 9.564 16.7625 9.216C17.3385 8.868 18.0165 8.694 18.7965 8.694C19.4325 8.694 20.0265 8.826 20.5785 9.09C21.1425 9.342 21.5985 9.744 21.9465 10.296C22.3065 10.836 22.4865 11.532 22.4865 12.384C22.4865 12.636 22.4685 12.906 22.4325 13.194C22.3965 13.47 22.3365 13.764 22.2525 14.076H16.9605C16.9845 14.82 17.1705 15.378 17.5185 15.75C17.8665 16.122 18.4245 16.308 19.1925 16.308C19.6005 16.308 20.0205 16.26 20.4525 16.164C20.8965 16.068 21.3525 15.924 21.8205 15.732L22.4145 17.478ZM18.7965 10.44C18.2445 10.44 17.8125 10.62 17.5005 10.98C17.2005 11.328 17.0265 11.832 16.9785 12.492H20.4345C20.4465 12.432 20.4525 12.378 20.4525 12.33C20.4525 12.27 20.4525 12.216 20.4525 12.168C20.4525 11.592 20.2905 11.16 19.9665 10.872C19.6425 10.584 19.2525 10.44 18.7965 10.44ZM29.6952 18L27.8052 14.94L25.9512 18H23.7912L26.7432 13.32L23.9892 8.874H26.2212L27.9132 11.592L29.5512 8.874H31.7112L28.9572 13.23L31.9272 18H29.6952ZM32.6285 13.23V11.43H38.1005V13.23H32.6285ZM47.3579 17.478C46.7339 17.73 46.1459 17.91 45.5939 18.018C45.0419 18.126 44.5199 18.18 44.0279 18.18C42.6719 18.18 41.6459 17.796 40.9499 17.028C40.2539 16.26 39.9059 15.24 39.9059 13.968V12.888C39.9059 12.036 40.0619 11.298 40.3739 10.674C40.6859 10.05 41.1299 9.564 41.7059 9.216C42.2819 8.868 42.9599 8.694 43.7399 8.694C44.3759 8.694 44.9699 8.826 45.5219 9.09C46.0859 9.342 46.5419 9.744 46.8899 10.296C47.2499 10.836 47.4299 11.532 47.4299 12.384C47.4299 12.636 47.4119 12.906 47.3759 13.194C47.3399 13.47 47.2799 13.764 47.1959 14.076H41.9039C41.9279 14.82 42.1139 15.378 42.4619 15.75C42.8099 16.122 43.3679 16.308 44.1359 16.308C44.5439 16.308 44.9639 16.26 45.3959 16.164C45.8399 16.068 46.2959 15.924 46.7639 15.732L47.3579 17.478ZM43.7399 10.44C43.1879 10.44 42.7559 10.62 42.4439 10.98C42.1439 11.328 41.9699 11.832 41.9219 12.492H45.3779C45.3899 12.432 45.3959 12.378 45.3959 12.33C45.3959 12.27 45.3959 12.216 45.3959 12.168C45.3959 11.592 45.2339 11.16 44.9099 10.872C44.5859 10.584 44.1959 10.44 43.7399 10.44ZM54.2786 10.62C53.9786 10.62 53.6366 10.692 53.2526 10.836C52.8686 10.98 52.4126 11.262 51.8846 11.682V18H49.8146V8.874H51.7766V10.098C52.3406 9.606 52.8746 9.252 53.3786 9.036C53.8826 8.808 54.3926 8.694 54.9086 8.694C55.7846 8.694 56.4506 8.976 56.9066 9.54C57.3626 10.092 57.5906 10.872 57.5906 11.88V18H55.5206V12.132C55.5206 11.124 55.1066 10.62 54.2786 10.62ZM65.6723 18V16.758C65.1203 17.31 64.6403 17.688 64.2323 17.892C63.8363 18.084 63.4223 18.18 62.9903 18.18C62.0063 18.18 61.2383 17.808 60.6863 17.064C60.1463 16.32 59.8763 15.276 59.8763 13.932V12.96C59.8763 11.652 60.2063 10.614 60.8663 9.846C61.5263 9.078 62.4803 8.694 63.7283 8.694C64.0403 8.694 64.3463 8.724 64.6463 8.784C64.9583 8.844 65.2643 8.928 65.5643 9.036V4.68H67.6343V18H65.6723ZM62.0003 13.932C62.0003 14.736 62.1323 15.324 62.3963 15.696C62.6723 16.068 63.0563 16.254 63.5483 16.254C63.8243 16.254 64.1183 16.176 64.4303 16.02C64.7423 15.852 65.1203 15.54 65.5643 15.084V10.908C64.9763 10.668 64.4363 10.548 63.9443 10.548C63.2483 10.548 62.7503 10.764 62.4503 11.196C62.1503 11.628 62.0003 12.216 62.0003 12.96V13.932Z" fill="black"/>
</svg>
