<svg width="367" height="163" viewBox="0 0 367 163" fill="none" xmlns="http://www.w3.org/2000/svg">
<rect width="367" height="139.81" transform="translate(0 23)" fill="black"/>
<rect x="86.5262" y="45" width="93.4976" height="39.3214" rx="8.71736" fill="#760A6B"/>
<rect x="194.005" y="45" width="116.217" height="39.3214" rx="8.71736" fill="#760A6B"/>
<rect x="14" y="45" width="58.5452" height="39.3214" rx="8.71736" fill="#760A6B"/>
<rect x="86.5262" y="101" width="93.4976" height="39.3214" rx="8.71736" fill="#760A6B"/>
<rect x="194.005" y="101" width="116.217" height="39.3214" rx="8.71736" fill="#760A6B"/>
<rect x="14" y="101" width="58.5452" height="39.3214" rx="8.71736" fill="#760A6B"/>
<path d="M8.22633 16.8371C8.22633 17.7172 7.89363 18.3933 7.22823 18.8655C6.57355 19.3485 5.67204 19.59 4.52368 19.59C3.25726 19.59 2.31282 19.3807 1.69034 18.9621C1.06787 18.5543 0.729799 18.0445 0.676137 17.4328L2.39868 17.1591C2.35575 17.7279 2.4899 18.1787 2.80114 18.5114C3.12311 18.8548 3.69729 19.0265 4.52368 19.0265C5.29641 19.0265 5.91888 18.8816 6.39111 18.5919C6.87406 18.3021 7.11554 17.8835 7.11554 17.3362C7.11554 16.9498 6.97065 16.6547 6.68088 16.4508C6.40184 16.2576 5.93498 16.161 5.28031 16.161H3.44508C2.87627 16.161 2.42551 16.0805 2.09281 15.9195C1.77084 15.7585 1.54546 15.56 1.41667 15.3239C1.28788 15.077 1.22349 14.8248 1.22349 14.5672C1.22349 14.256 1.30934 13.9501 1.48106 13.6496C1.65278 13.3384 1.94792 13.0325 2.36648 12.732C1.90499 12.5281 1.52936 12.2276 1.23958 11.8305C0.949812 11.4334 0.804925 10.9397 0.804925 10.3494C0.804925 9.74842 0.944445 9.25473 1.22349 8.86836C1.50253 8.47127 1.87816 8.17613 2.35038 7.98295C2.8226 7.77903 3.34849 7.67707 3.92803 7.67707H4.20171C4.82418 7.67707 5.3608 7.77903 5.81156 7.98295L8.12974 6.83995L8.32293 8.41761H6.4877C6.74527 8.64298 6.94382 8.91666 7.08334 9.23863C7.23359 9.54987 7.30872 9.92013 7.30872 10.3494C7.30872 10.929 7.1692 11.4173 6.89016 11.8144C6.61112 12.2115 6.23549 12.512 5.76326 12.7159C5.30177 12.9198 4.78126 13.0218 4.20171 13.0218H3.92803C3.60606 13.0218 3.28946 12.9896 2.97822 12.9252C2.70991 13.1076 2.5221 13.2847 2.41478 13.4564C2.31818 13.6174 2.26989 13.773 2.26989 13.9233C2.26989 14.095 2.34502 14.2238 2.49527 14.3097C2.65625 14.3955 2.91383 14.4384 3.268 14.4384H5.3608C6.28378 14.4384 6.99212 14.6477 7.4858 15.0663C7.97949 15.4741 8.22633 16.0644 8.22633 16.8371ZM4.20171 12.4583C4.54514 12.4583 4.84028 12.3081 5.08713 12.0076C5.33397 11.7071 5.45739 11.1544 5.45739 10.3494C5.45739 9.5445 5.33397 8.99179 5.08713 8.69128C4.84028 8.39077 4.54514 8.24052 4.20171 8.24052H3.92803C3.5846 8.24052 3.28409 8.39077 3.02652 8.69128C2.77967 8.99179 2.65625 9.5445 2.65625 10.3494C2.65625 11.1544 2.77967 11.7071 3.02652 12.0076C3.28409 12.3081 3.5846 12.4583 3.92803 12.4583H4.20171ZM17.1486 15.5975C16.9768 15.7585 16.7676 15.8927 16.5207 16C16.2846 16.1073 15.9948 16.161 15.6514 16.161C15.2114 16.161 14.8411 16.0644 14.5406 15.8712C14.2508 15.678 14.0576 15.4044 13.961 15.0502C13.6069 15.4366 13.2152 15.721 12.7859 15.9034C12.3673 16.0751 11.938 16.161 11.498 16.161C10.7574 16.161 10.2047 15.9571 9.83983 15.5492C9.47493 15.1307 9.29248 14.6102 9.29248 13.9877C9.29248 13.3545 9.52323 12.8447 9.98472 12.4583C10.4462 12.0612 11.2619 11.8627 12.4317 11.8627H13.8967V10.5587C13.8967 9.66792 13.7786 9.06155 13.5425 8.73958C13.3171 8.40687 13.0005 8.24052 12.5927 8.24052C12.3244 8.24052 12.0775 8.31028 11.8521 8.4498C11.6268 8.57859 11.4658 8.82543 11.3692 9.19033C11.2833 9.5445 11.2994 10.0597 11.4175 10.7358L9.64665 10.4782C9.56079 9.98453 9.61445 9.5284 9.80764 9.10984C10.0115 8.68055 10.3496 8.33711 10.8218 8.07954C11.2941 7.81123 11.8951 7.67707 12.6249 7.67707C13.4513 7.67707 14.0898 7.81123 14.5406 8.07954C14.9914 8.34785 15.3026 8.70201 15.4743 9.14204C15.6568 9.58206 15.748 10.0543 15.748 10.5587V14.2775C15.748 14.8248 15.7963 15.1682 15.8929 15.3078C15.9895 15.4473 16.0968 15.517 16.2148 15.517C16.408 15.517 16.6227 15.4044 16.8588 15.179L17.1486 15.5975ZM12.2063 15.3078C12.4854 15.3078 12.759 15.238 13.0273 15.0985C13.3064 14.9482 13.5961 14.6746 13.8967 14.2775V12.4261H12.6893C12.1634 12.4261 11.7824 12.5496 11.5463 12.7964C11.3102 13.0432 11.1921 13.4296 11.1921 13.9555C11.1921 14.3848 11.278 14.7175 11.4497 14.9536C11.6214 15.1897 11.8736 15.3078 12.2063 15.3078ZM17.488 8.28882V7.83806H20.4823V9.17424C20.7936 8.66982 21.1316 8.29418 21.4965 8.04734C21.8614 7.8005 22.2961 7.67707 22.8005 7.67707C23.702 7.67707 24.4157 8.03661 24.9416 8.75567C25.4782 9.46401 25.7465 10.4621 25.7465 11.75V12.072C25.7465 13.3169 25.4407 14.3097 24.8289 15.0502C24.2172 15.7907 23.3693 16.161 22.2854 16.161C21.6414 16.161 21.0726 16 20.5789 15.678V18.0767C20.5789 18.4416 20.595 18.6563 20.6272 18.7206C20.6594 18.7958 20.7614 18.8441 20.9331 18.8655L22.1405 18.9782V19.429H17.488V18.9782L18.3734 18.8655C18.5451 18.8441 18.6471 18.7958 18.6793 18.7206C18.7115 18.6563 18.7276 18.4416 18.7276 18.0767V9.19033C18.7276 8.82543 18.7115 8.61079 18.6793 8.54639C18.6471 8.47127 18.5451 8.42297 18.3734 8.40151L17.488 8.28882ZM22.3819 8.38541C22.1136 8.38541 21.8292 8.4981 21.5287 8.72348C21.239 8.93812 20.9223 9.38352 20.5789 10.0597V14.9214C20.9867 15.3292 21.4858 15.5331 22.0761 15.5331C22.6771 15.5331 23.1064 15.2702 23.364 14.7443C23.6323 14.2077 23.7664 13.4779 23.7664 12.5549V11.267C23.7664 10.2689 23.643 9.53913 23.3962 9.07764C23.1493 8.61615 22.8112 8.38541 22.3819 8.38541ZM30.5534 6.48579L32.7911 5.05302H34.3366V14.6477C34.3366 15.0126 34.3527 15.2326 34.3849 15.3078C34.4171 15.3722 34.519 15.4151 34.6908 15.4366L35.5762 15.5492V16H30.8432V15.5492L32.0506 15.4366C32.2223 15.4151 32.3243 15.3722 32.3565 15.3078C32.3887 15.2326 32.4048 15.0126 32.4048 14.6477V5.98673L30.8593 6.96874L30.5534 6.48579ZM45.0298 10.0114V11.0256C45.0298 12.0559 44.8742 12.9574 44.5629 13.7301C44.2624 14.5028 43.817 15.1039 43.2267 15.5331C42.6365 15.9517 41.9228 16.161 41.0856 16.161C40.2485 16.161 39.5348 15.9517 38.9445 15.5331C38.3543 15.1039 37.9035 14.5028 37.5923 13.7301C37.2918 12.9574 37.1415 12.0559 37.1415 11.0256V10.0114C37.1415 8.98105 37.2918 8.0849 37.5923 7.32291C37.9035 6.55018 38.3543 5.95454 38.9445 5.53597C39.5348 5.10668 40.2485 4.89203 41.0856 4.89203C41.9228 4.89203 42.6365 5.10668 43.2267 5.53597C43.817 5.95454 44.2624 6.55018 44.5629 7.32291C44.8742 8.0849 45.0298 8.98105 45.0298 10.0114ZM42.8887 8.88446C42.8887 7.66098 42.7331 6.78629 42.4218 6.26041C42.1106 5.72379 41.6652 5.45548 41.0856 5.45548C40.5061 5.45548 40.0607 5.72379 39.7495 6.26041C39.4382 6.78629 39.2826 7.66098 39.2826 8.88446V12.1525C39.2826 13.3867 39.4382 14.2721 39.7495 14.8087C40.0607 15.3346 40.5061 15.5975 41.0856 15.5975C41.6652 15.5975 42.1106 15.3346 42.4218 14.8087C42.7331 14.2721 42.8887 13.3867 42.8887 12.1525V8.88446ZM46.305 8.28882V7.83806H49.2993V9.17424C49.6105 8.66982 49.9486 8.29418 50.3135 8.04734C50.6784 7.8005 51.113 7.67707 51.6175 7.67707C52.519 7.67707 53.2327 8.03661 53.7586 8.75567C54.2952 9.46401 54.5635 10.4621 54.5635 11.75V12.072C54.5635 13.3169 54.2576 14.3097 53.6459 15.0502C53.0341 15.7907 52.1863 16.161 51.1023 16.161C50.4584 16.161 49.8896 16 49.3959 15.678V18.0767C49.3959 18.4416 49.412 18.6563 49.4442 18.7206C49.4764 18.7958 49.5783 18.8441 49.75 18.8655L50.9574 18.9782V19.429H46.305V18.9782L47.1904 18.8655C47.3621 18.8441 47.464 18.7958 47.4962 18.7206C47.5284 18.6563 47.5445 18.4416 47.5445 18.0767V9.19033C47.5445 8.82543 47.5284 8.61079 47.4962 8.54639C47.464 8.47127 47.3621 8.42297 47.1904 8.40151L46.305 8.28882ZM51.1989 8.38541C50.9306 8.38541 50.6462 8.4981 50.3457 8.72348C50.0559 8.93812 49.7393 9.38352 49.3959 10.0597V14.9214C49.8037 15.3292 50.3027 15.5331 50.893 15.5331C51.494 15.5331 51.9233 15.2702 52.1809 14.7443C52.4492 14.2077 52.5834 13.4779 52.5834 12.5549V11.267C52.5834 10.2689 52.4599 9.53913 52.2131 9.07764C51.9663 8.61615 51.6282 8.38541 51.1989 8.38541ZM58.686 15.5492V16H55.4663V15.5492L56.3517 15.4366C56.459 15.4151 56.5395 15.3936 56.5931 15.3722C56.6575 15.34 56.7327 15.2702 56.8185 15.1629C56.9044 15.0556 57.0278 14.8838 57.1888 14.6477L58.9113 12.1364L57.1888 9.19033C57.0493 8.94349 56.9419 8.77177 56.8668 8.67518C56.7917 8.56786 56.7219 8.4981 56.6575 8.4659C56.5931 8.4337 56.5073 8.41224 56.4 8.40151L55.5145 8.28882V7.83806H59.9738V8.28882L59.0884 8.40151C58.9167 8.42297 58.8362 8.4659 58.8469 8.5303C58.8577 8.59469 58.9704 8.8147 59.185 9.19033L60.2636 11.0256L61.5032 9.19033C61.75 8.82543 61.8735 8.61079 61.8735 8.54639C61.8842 8.47127 61.8037 8.42297 61.632 8.40151L60.7466 8.28882V7.83806H63.9663V8.28882L63.0808 8.40151C62.9735 8.41224 62.8877 8.4337 62.8233 8.4659C62.7696 8.4981 62.6998 8.56786 62.614 8.67518C62.5389 8.77177 62.4154 8.94349 62.2437 9.19033L60.6017 11.6051L62.3725 14.6477C62.5228 14.8946 62.6301 15.0717 62.6945 15.179C62.7696 15.2756 62.8394 15.34 62.9038 15.3722C62.9682 15.3936 63.054 15.4151 63.1613 15.4366L64.0468 15.5492V16H59.5875V15.5492L60.4729 15.4366C60.6446 15.4151 60.7251 15.3722 60.7144 15.3078C60.7036 15.2326 60.5909 15.0126 60.3763 14.6477L59.2494 12.6998L57.9293 14.6477C57.6825 15.0126 57.5537 15.2326 57.543 15.3078C57.543 15.3722 57.6288 15.4151 57.8005 15.4366L58.686 15.5492ZM71.0915 10.6714H70.6568V10.1079H71.0915C71.8535 10.1079 72.3901 9.88257 72.7013 9.43181C73.0233 8.98105 73.1843 8.40151 73.1843 7.69317C73.1843 6.20138 72.696 5.45548 71.7193 5.45548C71.1183 5.45548 70.6944 5.71842 70.4475 6.24431C70.2114 6.77019 70.147 7.51609 70.2544 8.482L68.3225 8.22442C68.226 7.64488 68.2796 7.10289 68.4835 6.59847C68.6982 6.09405 69.0738 5.68623 69.6104 5.37499C70.1578 5.05302 70.8661 4.89203 71.7354 4.89203C72.5833 4.89203 73.2648 5.02619 73.7799 5.2945C74.2951 5.55207 74.6707 5.89551 74.9068 6.3248C75.1537 6.74336 75.2771 7.19949 75.2771 7.69317C75.2771 8.44444 75.0195 9.05081 74.5044 9.5123C73.9892 9.96306 73.2541 10.2528 72.2989 10.3816C73.297 10.5104 74.059 10.8109 74.5849 11.2831C75.1215 11.7554 75.3898 12.4154 75.3898 13.2633C75.3898 14.1111 75.0678 14.8087 74.4239 15.3561C73.7799 15.8927 72.8194 16.161 71.5422 16.161C70.6944 16.161 69.97 15.9678 69.3689 15.5814C68.7787 15.1843 68.403 14.5297 68.2421 13.6174L69.385 13.3116C69.4924 14.1272 69.7177 14.7121 70.0612 15.0663C70.4153 15.4205 70.8607 15.5975 71.3974 15.5975C72.0628 15.5975 72.5457 15.4044 72.8462 15.018C73.1467 14.6209 73.297 14.036 73.297 13.2633C73.297 12.5013 73.1306 11.8788 72.7979 11.3958C72.4652 10.9129 71.8964 10.6714 71.0915 10.6714ZM85.0559 10.0114V11.0256C85.0559 12.0559 84.9003 12.9574 84.5891 13.7301C84.2886 14.5028 83.8432 15.1039 83.2529 15.5331C82.6626 15.9517 81.9489 16.161 81.1118 16.161C80.2747 16.161 79.561 15.9517 78.9707 15.5331C78.3804 15.1039 77.9297 14.5028 77.6184 13.7301C77.3179 12.9574 77.1677 12.0559 77.1677 11.0256V10.0114C77.1677 8.98105 77.3179 8.0849 77.6184 7.32291C77.9297 6.55018 78.3804 5.95454 78.9707 5.53597C79.561 5.10668 80.2747 4.89203 81.1118 4.89203C81.9489 4.89203 82.6626 5.10668 83.2529 5.53597C83.8432 5.95454 84.2886 6.55018 84.5891 7.32291C84.9003 8.0849 85.0559 8.98105 85.0559 10.0114ZM82.9148 8.88446C82.9148 7.66098 82.7592 6.78629 82.448 6.26041C82.1367 5.72379 81.6913 5.45548 81.1118 5.45548C80.5323 5.45548 80.0869 5.72379 79.7756 6.26041C79.4644 6.78629 79.3088 7.66098 79.3088 8.88446V12.1525C79.3088 13.3867 79.4644 14.2721 79.7756 14.8087C80.0869 15.3346 80.5323 15.5975 81.1118 15.5975C81.6913 15.5975 82.1367 15.3346 82.448 14.8087C82.7592 14.2721 82.9148 13.3867 82.9148 12.1525V8.88446ZM86.3311 8.28882V7.83806H89.3254V9.17424C89.6367 8.66982 89.9747 8.29418 90.3396 8.04734C90.7045 7.8005 91.1392 7.67707 91.6436 7.67707C92.5451 7.67707 93.2588 8.03661 93.7847 8.75567C94.3213 9.46401 94.5896 10.4621 94.5896 11.75V12.072C94.5896 13.3169 94.2838 14.3097 93.672 15.0502C93.0603 15.7907 92.2124 16.161 91.1285 16.161C90.4845 16.161 89.9157 16 89.422 15.678V18.0767C89.422 18.4416 89.4381 18.6563 89.4703 18.7206C89.5025 18.7958 89.6045 18.8441 89.7762 18.8655L90.9836 18.9782V19.429H86.3311V18.9782L87.2165 18.8655C87.3882 18.8441 87.4902 18.7958 87.5224 18.7206C87.5546 18.6563 87.5707 18.4416 87.5707 18.0767V9.19033C87.5707 8.82543 87.5546 8.61079 87.5224 8.54639C87.4902 8.47127 87.3882 8.42297 87.2165 8.40151L86.3311 8.28882ZM91.2251 8.38541C90.9567 8.38541 90.6723 8.4981 90.3718 8.72348C90.0821 8.93812 89.7655 9.38352 89.422 10.0597V14.9214C89.8298 15.3292 90.3289 15.5331 90.9192 15.5331C91.5202 15.5331 91.9495 15.2702 92.2071 14.7443C92.4754 14.2077 92.6095 13.4779 92.6095 12.5549V11.267C92.6095 10.2689 92.4861 9.53913 92.2393 9.07764C91.9924 8.61615 91.6543 8.38541 91.2251 8.38541ZM98.7121 15.5492V16H95.4924V15.5492L96.3778 15.4366C96.4852 15.4151 96.5656 15.3936 96.6193 15.3722C96.6837 15.34 96.7588 15.2702 96.8447 15.1629C96.9305 15.0556 97.054 14.8838 97.215 14.6477L98.9375 12.1364L97.215 9.19033C97.0754 8.94349 96.9681 8.77177 96.893 8.67518C96.8179 8.56786 96.7481 8.4981 96.6837 8.4659C96.6193 8.4337 96.5334 8.41224 96.4261 8.40151L95.5407 8.28882V7.83806H100V8.28882L99.1146 8.40151C98.9429 8.42297 98.8624 8.4659 98.8731 8.5303C98.8838 8.59469 98.9965 8.8147 99.2112 9.19033L100.29 11.0256L101.529 9.19033C101.776 8.82543 101.9 8.61079 101.9 8.54639C101.91 8.47127 101.83 8.42297 101.658 8.40151L100.773 8.28882V7.83806H103.992V8.28882L103.107 8.40151C103 8.41224 102.914 8.4337 102.849 8.4659C102.796 8.4981 102.726 8.56786 102.64 8.67518C102.565 8.77177 102.442 8.94349 102.27 9.19033L100.628 11.6051L102.399 14.6477C102.549 14.8946 102.656 15.0717 102.721 15.179C102.796 15.2756 102.866 15.34 102.93 15.3722C102.994 15.3936 103.08 15.4151 103.187 15.4366L104.073 15.5492V16H99.6136V15.5492L100.499 15.4366C100.671 15.4151 100.751 15.3722 100.741 15.3078C100.73 15.2326 100.617 15.0126 100.402 14.6477L99.2756 12.6998L97.9555 14.6477C97.7086 15.0126 97.5799 15.2326 97.5691 15.3078C97.5691 15.3722 97.655 15.4151 97.8267 15.4366L98.7121 15.5492Z" fill="black"/>
</svg>
