<svg width="367" height="162" viewBox="0 0 367 162" fill="none" xmlns="http://www.w3.org/2000/svg">
<rect width="367" height="139.81" transform="translate(0 22)" fill="black"/>
<rect x="86.5262" y="34" width="93.4976" height="39.3214" rx="8.71736" fill="#760A6B"/>
<rect x="194.005" y="34" width="116.217" height="39.3214" rx="8.71736" fill="#760A6B"/>
<rect x="14" y="34" width="58.5452" height="39.3214" rx="8.71736" fill="#760A6B"/>
<rect x="86.5262" y="112" width="93.4976" height="39.3214" rx="8.71736" fill="#760A6B"/>
<rect x="194.005" y="112" width="116.217" height="39.3214" rx="8.71736" fill="#760A6B"/>
<rect x="14" y="112" width="58.5452" height="39.3214" rx="8.71736" fill="#760A6B"/>
<path d="M8.22633 16.8371C8.22633 17.7172 7.89363 18.3933 7.22823 18.8655C6.57355 19.3485 5.67204 19.59 4.52368 19.59C3.25726 19.59 2.31282 19.3807 1.69034 18.9621C1.06787 18.5543 0.729799 18.0445 0.676137 17.4328L2.39868 17.1591C2.35575 17.7279 2.4899 18.1787 2.80114 18.5114C3.12311 18.8548 3.69729 19.0265 4.52368 19.0265C5.29641 19.0265 5.91888 18.8816 6.39111 18.5919C6.87406 18.3021 7.11554 17.8835 7.11554 17.3362C7.11554 16.9498 6.97065 16.6547 6.68088 16.4508C6.40184 16.2576 5.93498 16.161 5.28031 16.161H3.44508C2.87627 16.161 2.42551 16.0805 2.09281 15.9195C1.77084 15.7585 1.54546 15.56 1.41667 15.3239C1.28788 15.077 1.22349 14.8248 1.22349 14.5672C1.22349 14.256 1.30934 13.9501 1.48106 13.6496C1.65278 13.3384 1.94792 13.0325 2.36648 12.732C1.90499 12.5281 1.52936 12.2276 1.23958 11.8305C0.949812 11.4334 0.804925 10.9397 0.804925 10.3494C0.804925 9.74842 0.944445 9.25473 1.22349 8.86836C1.50253 8.47127 1.87816 8.17613 2.35038 7.98295C2.8226 7.77903 3.34849 7.67707 3.92803 7.67707H4.20171C4.82418 7.67707 5.3608 7.77903 5.81156 7.98295L8.12974 6.83995L8.32293 8.41761H6.4877C6.74527 8.64298 6.94382 8.91666 7.08334 9.23863C7.23359 9.54987 7.30872 9.92013 7.30872 10.3494C7.30872 10.929 7.1692 11.4173 6.89016 11.8144C6.61112 12.2115 6.23549 12.512 5.76326 12.7159C5.30177 12.9198 4.78126 13.0218 4.20171 13.0218H3.92803C3.60606 13.0218 3.28946 12.9896 2.97822 12.9252C2.70991 13.1076 2.5221 13.2847 2.41478 13.4564C2.31818 13.6174 2.26989 13.773 2.26989 13.9233C2.26989 14.095 2.34502 14.2238 2.49527 14.3097C2.65625 14.3955 2.91383 14.4384 3.268 14.4384H5.3608C6.28378 14.4384 6.99212 14.6477 7.4858 15.0663C7.97949 15.4741 8.22633 16.0644 8.22633 16.8371ZM4.20171 12.4583C4.54514 12.4583 4.84028 12.3081 5.08713 12.0076C5.33397 11.7071 5.45739 11.1544 5.45739 10.3494C5.45739 9.5445 5.33397 8.99179 5.08713 8.69128C4.84028 8.39077 4.54514 8.24052 4.20171 8.24052H3.92803C3.5846 8.24052 3.28409 8.39077 3.02652 8.69128C2.77967 8.99179 2.65625 9.5445 2.65625 10.3494C2.65625 11.1544 2.77967 11.7071 3.02652 12.0076C3.28409 12.3081 3.5846 12.4583 3.92803 12.4583H4.20171ZM17.1486 15.5975C16.9768 15.7585 16.7676 15.8927 16.5207 16C16.2846 16.1073 15.9948 16.161 15.6514 16.161C15.2114 16.161 14.8411 16.0644 14.5406 15.8712C14.2508 15.678 14.0576 15.4044 13.961 15.0502C13.6069 15.4366 13.2152 15.721 12.7859 15.9034C12.3673 16.0751 11.938 16.161 11.498 16.161C10.7574 16.161 10.2047 15.9571 9.83983 15.5492C9.47493 15.1307 9.29248 14.6102 9.29248 13.9877C9.29248 13.3545 9.52323 12.8447 9.98472 12.4583C10.4462 12.0612 11.2619 11.8627 12.4317 11.8627H13.8967V10.5587C13.8967 9.66792 13.7786 9.06155 13.5425 8.73958C13.3171 8.40687 13.0005 8.24052 12.5927 8.24052C12.3244 8.24052 12.0775 8.31028 11.8521 8.4498C11.6268 8.57859 11.4658 8.82543 11.3692 9.19033C11.2833 9.5445 11.2994 10.0597 11.4175 10.7358L9.64665 10.4782C9.56079 9.98453 9.61445 9.5284 9.80764 9.10984C10.0115 8.68055 10.3496 8.33711 10.8218 8.07954C11.2941 7.81123 11.8951 7.67707 12.6249 7.67707C13.4513 7.67707 14.0898 7.81123 14.5406 8.07954C14.9914 8.34785 15.3026 8.70201 15.4743 9.14204C15.6568 9.58206 15.748 10.0543 15.748 10.5587V14.2775C15.748 14.8248 15.7963 15.1682 15.8929 15.3078C15.9895 15.4473 16.0968 15.517 16.2148 15.517C16.408 15.517 16.6227 15.4044 16.8588 15.179L17.1486 15.5975ZM12.2063 15.3078C12.4854 15.3078 12.759 15.238 13.0273 15.0985C13.3064 14.9482 13.5961 14.6746 13.8967 14.2775V12.4261H12.6893C12.1634 12.4261 11.7824 12.5496 11.5463 12.7964C11.3102 13.0432 11.1921 13.4296 11.1921 13.9555C11.1921 14.3848 11.278 14.7175 11.4497 14.9536C11.6214 15.1897 11.8736 15.3078 12.2063 15.3078ZM17.488 8.28882V7.83806H20.4823V9.17424C20.7936 8.66982 21.1316 8.29418 21.4965 8.04734C21.8614 7.8005 22.2961 7.67707 22.8005 7.67707C23.702 7.67707 24.4157 8.03661 24.9416 8.75567C25.4782 9.46401 25.7465 10.4621 25.7465 11.75V12.072C25.7465 13.3169 25.4407 14.3097 24.8289 15.0502C24.2172 15.7907 23.3693 16.161 22.2854 16.161C21.6414 16.161 21.0726 16 20.5789 15.678V18.0767C20.5789 18.4416 20.595 18.6563 20.6272 18.7206C20.6594 18.7958 20.7614 18.8441 20.9331 18.8655L22.1405 18.9782V19.429H17.488V18.9782L18.3734 18.8655C18.5451 18.8441 18.6471 18.7958 18.6793 18.7206C18.7115 18.6563 18.7276 18.4416 18.7276 18.0767V9.19033C18.7276 8.82543 18.7115 8.61079 18.6793 8.54639C18.6471 8.47127 18.5451 8.42297 18.3734 8.40151L17.488 8.28882ZM22.3819 8.38541C22.1136 8.38541 21.8292 8.4981 21.5287 8.72348C21.239 8.93812 20.9223 9.38352 20.5789 10.0597V14.9214C20.9867 15.3292 21.4858 15.5331 22.0761 15.5331C22.6771 15.5331 23.1064 15.2702 23.364 14.7443C23.6323 14.2077 23.7664 13.4779 23.7664 12.5549V11.267C23.7664 10.2689 23.643 9.53913 23.3962 9.07764C23.1493 8.61615 22.8112 8.38541 22.3819 8.38541ZM33.6122 10.6714H33.1775V10.1079H33.6122C34.3742 10.1079 34.9108 9.88257 35.222 9.43181C35.544 8.98105 35.705 8.40151 35.705 7.69317C35.705 6.20138 35.2166 5.45548 34.24 5.45548C33.639 5.45548 33.2151 5.71842 32.9682 6.24431C32.7321 6.77019 32.6677 7.51609 32.775 8.482L30.8432 8.22442C30.7466 7.64488 30.8003 7.10289 31.0042 6.59847C31.2189 6.09405 31.5945 5.68623 32.1311 5.37499C32.6784 5.05302 33.3868 4.89203 34.2561 4.89203C35.104 4.89203 35.7855 5.02619 36.3006 5.2945C36.8158 5.55207 37.1914 5.89551 37.4275 6.3248C37.6744 6.74336 37.7978 7.19949 37.7978 7.69317C37.7978 8.44444 37.5402 9.05081 37.025 9.5123C36.5099 9.96306 35.7747 10.2528 34.8196 10.3816C35.8177 10.5104 36.5797 10.8109 37.1055 11.2831C37.6422 11.7554 37.9105 12.4154 37.9105 13.2633C37.9105 14.1111 37.5885 14.8087 36.9446 15.3561C36.3006 15.8927 35.3401 16.161 34.0629 16.161C33.2151 16.161 32.4906 15.9678 31.8896 15.5814C31.2993 15.1843 30.9237 14.5297 30.7627 13.6174L31.9057 13.3116C32.013 14.1272 32.2384 14.7121 32.5819 15.0663C32.936 15.4205 33.3814 15.5975 33.918 15.5975C34.5834 15.5975 35.0664 15.4044 35.3669 15.018C35.6674 14.6209 35.8177 14.036 35.8177 13.2633C35.8177 12.5013 35.6513 11.8788 35.3186 11.3958C34.9859 10.9129 34.4171 10.6714 33.6122 10.6714ZM47.5766 10.0114V11.0256C47.5766 12.0559 47.421 12.9574 47.1097 13.7301C46.8092 14.5028 46.3639 15.1039 45.7736 15.5331C45.1833 15.9517 44.4696 16.161 43.6325 16.161C42.7953 16.161 42.0816 15.9517 41.4914 15.5331C40.9011 15.1039 40.4503 14.5028 40.1391 13.7301C39.8386 12.9574 39.6883 12.0559 39.6883 11.0256V10.0114C39.6883 8.98105 39.8386 8.0849 40.1391 7.32291C40.4503 6.55018 40.9011 5.95454 41.4914 5.53597C42.0816 5.10668 42.7953 4.89203 43.6325 4.89203C44.4696 4.89203 45.1833 5.10668 45.7736 5.53597C46.3639 5.95454 46.8092 6.55018 47.1097 7.32291C47.421 8.0849 47.5766 8.98105 47.5766 10.0114ZM45.4355 8.88446C45.4355 7.66098 45.2799 6.78629 44.9686 6.26041C44.6574 5.72379 44.212 5.45548 43.6325 5.45548C43.0529 5.45548 42.6075 5.72379 42.2963 6.26041C41.9851 6.78629 41.8294 7.66098 41.8294 8.88446V12.1525C41.8294 13.3867 41.9851 14.2721 42.2963 14.8087C42.6075 15.3346 43.0529 15.5975 43.6325 15.5975C44.212 15.5975 44.6574 15.3346 44.9686 14.8087C45.2799 14.2721 45.4355 13.3867 45.4355 12.1525V8.88446ZM48.8518 8.28882V7.83806H51.8461V9.17424C52.1573 8.66982 52.4954 8.29418 52.8603 8.04734C53.2252 7.8005 53.6599 7.67707 54.1643 7.67707C55.0658 7.67707 55.7795 8.03661 56.3054 8.75567C56.842 9.46401 57.1103 10.4621 57.1103 11.75V12.072C57.1103 13.3169 56.8044 14.3097 56.1927 15.0502C55.581 15.7907 54.7331 16.161 53.6491 16.161C53.0052 16.161 52.4364 16 51.9427 15.678V18.0767C51.9427 18.4416 51.9588 18.6563 51.991 18.7206C52.0232 18.7958 52.1251 18.8441 52.2969 18.8655L53.5043 18.9782V19.429H48.8518V18.9782L49.7372 18.8655C49.9089 18.8441 50.0109 18.7958 50.0431 18.7206C50.0753 18.6563 50.0914 18.4416 50.0914 18.0767V9.19033C50.0914 8.82543 50.0753 8.61079 50.0431 8.54639C50.0109 8.47127 49.9089 8.42297 49.7372 8.40151L48.8518 8.28882ZM53.7457 8.38541C53.4774 8.38541 53.193 8.4981 52.8925 8.72348C52.6027 8.93812 52.2861 9.38352 51.9427 10.0597V14.9214C52.3505 15.3292 52.8496 15.5331 53.4399 15.5331C54.0409 15.5331 54.4702 15.2702 54.7277 14.7443C54.996 14.2077 55.1302 13.4779 55.1302 12.5549V11.267C55.1302 10.2689 55.0068 9.53913 54.7599 9.07764C54.5131 8.61615 54.175 8.38541 53.7457 8.38541ZM61.2328 15.5492V16H58.0131V15.5492L58.8985 15.4366C59.0058 15.4151 59.0863 15.3936 59.14 15.3722C59.2044 15.34 59.2795 15.2702 59.3654 15.1629C59.4512 15.0556 59.5746 14.8838 59.7356 14.6477L61.4582 12.1364L59.7356 9.19033C59.5961 8.94349 59.4888 8.77177 59.4137 8.67518C59.3385 8.56786 59.2688 8.4981 59.2044 8.4659C59.14 8.4337 59.0541 8.41224 58.9468 8.40151L58.0614 8.28882V7.83806H62.5207V8.28882L61.6352 8.40151C61.4635 8.42297 61.383 8.4659 61.3938 8.5303C61.4045 8.59469 61.5172 8.8147 61.7318 9.19033L62.8104 11.0256L64.05 9.19033C64.2969 8.82543 64.4203 8.61079 64.4203 8.54639C64.431 8.47127 64.3505 8.42297 64.1788 8.40151L63.2934 8.28882V7.83806H66.5131V8.28882L65.6277 8.40151C65.5204 8.41224 65.4345 8.4337 65.3701 8.4659C65.3164 8.4981 65.2467 8.56786 65.1608 8.67518C65.0857 8.77177 64.9623 8.94349 64.7906 9.19033L63.1485 11.6051L64.9193 14.6477C65.0696 14.8946 65.1769 15.0717 65.2413 15.179C65.3164 15.2756 65.3862 15.34 65.4506 15.3722C65.515 15.3936 65.6008 15.4151 65.7082 15.4366L66.5936 15.5492V16H62.1343V15.5492L63.0197 15.4366C63.1914 15.4151 63.2719 15.3722 63.2612 15.3078C63.2505 15.2326 63.1378 15.0126 62.9231 14.6477L61.7962 12.6998L60.4762 14.6477C60.2293 15.0126 60.1005 15.2326 60.0898 15.3078C60.0898 15.3722 60.1757 15.4151 60.3474 15.4366L61.2328 15.5492Z" fill="black"/>
</svg>
