<svg width="165" height="182" viewBox="0 0 165 182" fill="none" xmlns="http://www.w3.org/2000/svg">
<rect width="165" height="156" transform="translate(0 26)" fill="black"/>
<rect x="7" y="38" width="34" height="32" rx="10.1033" fill="#760A6B"/>
<rect x="46" y="38" width="34" height="32" rx="10.1033" fill="#760A6B"/>
<rect x="85" y="38" width="34" height="32" rx="10.1033" fill="#760A6B"/>
<rect x="124" y="38" width="34" height="32" rx="10.1033" fill="#760A6B"/>
<rect x="7" y="75" width="28" height="32" rx="10.1033" fill="#760A6B"/>
<rect x="41" y="75" width="34" height="32" rx="10.1033" fill="#760A6B"/>
<rect x="80" y="75" width="34" height="32" rx="10.1033" fill="#760A6B"/>
<rect x="119" y="75" width="39" height="32" rx="10.1033" fill="#760A6B"/>
<rect x="7" y="112" width="47" height="32" rx="10.1033" fill="#760A6B"/>
<rect x="59" y="112" width="47" height="32" rx="10.1033" fill="#760A6B"/>
<path d="M7.956 13.302H3.852V18H1.692V5.76H8.496V7.83H3.852V11.232H7.956V13.302ZM10.4559 15.426V4.68H12.5259V15.426C12.5259 15.606 12.5679 15.78 12.6519 15.948C12.7479 16.104 12.9279 16.182 13.1919 16.182H13.4799V18.09H12.9759C12.2919 18.09 11.7699 17.958 11.4099 17.694C11.0499 17.43 10.7979 17.094 10.6539 16.686C10.5219 16.278 10.4559 15.858 10.4559 15.426ZM22.4145 17.478C21.7905 17.73 21.2025 17.91 20.6505 18.018C20.0985 18.126 19.5765 18.18 19.0845 18.18C17.7285 18.18 16.7025 17.796 16.0065 17.028C15.3105 16.26 14.9625 15.24 14.9625 13.968V12.888C14.9625 12.036 15.1185 11.298 15.4305 10.674C15.7425 10.05 16.1865 9.564 16.7625 9.216C17.3385 8.868 18.0165 8.694 18.7965 8.694C19.4325 8.694 20.0265 8.826 20.5785 9.09C21.1425 9.342 21.5985 9.744 21.9465 10.296C22.3065 10.836 22.4865 11.532 22.4865 12.384C22.4865 12.636 22.4685 12.906 22.4325 13.194C22.3965 13.47 22.3365 13.764 22.2525 14.076H16.9605C16.9845 14.82 17.1705 15.378 17.5185 15.75C17.8665 16.122 18.4245 16.308 19.1925 16.308C19.6005 16.308 20.0205 16.26 20.4525 16.164C20.8965 16.068 21.3525 15.924 21.8205 15.732L22.4145 17.478ZM18.7965 10.44C18.2445 10.44 17.8125 10.62 17.5005 10.98C17.2005 11.328 17.0265 11.832 16.9785 12.492H20.4345C20.4465 12.432 20.4525 12.378 20.4525 12.33C20.4525 12.27 20.4525 12.216 20.4525 12.168C20.4525 11.592 20.2905 11.16 19.9665 10.872C19.6425 10.584 19.2525 10.44 18.7965 10.44ZM29.6952 18L27.8052 14.94L25.9512 18H23.7912L26.7432 13.32L23.9892 8.874H26.2212L27.9132 11.592L29.5512 8.874H31.7112L28.9572 13.23L31.9272 18H29.6952ZM32.6285 13.23V11.43H38.1005V13.23H32.6285ZM42.9839 16.38C43.4279 16.38 43.7939 16.308 44.0819 16.164C44.3699 16.008 44.5139 15.78 44.5139 15.48C44.5139 15.216 44.4179 15.012 44.2259 14.868C44.0459 14.712 43.7159 14.574 43.2359 14.454L42.2099 14.184C41.4179 13.98 40.8299 13.638 40.4459 13.158C40.0739 12.678 39.8879 12.108 39.8879 11.448C39.8879 10.668 40.1579 10.014 40.6979 9.486C41.2379 8.958 42.0719 8.694 43.1999 8.694C43.6559 8.694 44.1359 8.748 44.6399 8.856C45.1439 8.964 45.6719 9.138 46.2239 9.378L45.6299 11.142C45.1259 10.902 44.6699 10.734 44.2619 10.638C43.8539 10.542 43.4939 10.494 43.1819 10.494C42.3299 10.494 41.9039 10.782 41.9039 11.358C41.9039 11.586 41.9759 11.766 42.1199 11.898C42.2759 12.03 42.5579 12.15 42.9659 12.258L43.9919 12.528C44.8679 12.756 45.5039 13.104 45.8999 13.572C46.3079 14.04 46.5119 14.628 46.5119 15.336C46.5119 16.176 46.2239 16.86 45.6479 17.388C45.0839 17.916 44.1899 18.18 42.9659 18.18C41.9219 18.18 40.8239 17.94 39.6719 17.46L40.2299 15.75C40.7939 15.978 41.3039 16.14 41.7599 16.236C42.2159 16.332 42.6239 16.38 42.9839 16.38ZM54.1268 17.694C53.8148 17.838 53.4548 17.952 53.0468 18.036C52.6388 18.132 52.2248 18.18 51.8048 18.18C51.1088 18.18 50.5508 18.036 50.1308 17.748C49.7108 17.46 49.4048 17.058 49.2128 16.542C49.0328 16.026 48.9428 15.438 48.9428 14.778V10.674H47.4668V8.874H48.9428V6.498H51.0128V8.874H53.8568V10.674H51.0128V14.778C51.0128 15.33 51.1148 15.714 51.3188 15.93C51.5348 16.134 51.8408 16.236 52.2368 16.236C52.4288 16.236 52.6328 16.218 52.8488 16.182C53.0768 16.134 53.3288 16.056 53.6048 15.948L54.1268 17.694ZM62.7031 18.09C62.0911 18.09 61.5991 17.964 61.2271 17.712C60.8671 17.46 60.6031 17.148 60.4351 16.776C59.9191 17.256 59.4211 17.61 58.9411 17.838C58.4611 18.066 57.9451 18.18 57.3931 18.18C56.5891 18.18 55.9951 17.922 55.6111 17.406C55.2391 16.89 55.0531 16.236 55.0531 15.444C55.0531 14.916 55.1491 14.454 55.3411 14.058C55.5451 13.65 55.8751 13.332 56.3311 13.104C56.7871 12.876 57.4111 12.762 58.2031 12.762C58.5151 12.762 58.8391 12.786 59.1751 12.834C59.5111 12.87 59.8471 12.918 60.1831 12.978V11.916C60.1831 11.412 60.0451 11.07 59.7691 10.89C59.4931 10.698 59.1211 10.602 58.6531 10.602C58.2931 10.602 57.8971 10.65 57.4651 10.746C57.0451 10.842 56.5891 10.992 56.0971 11.196L55.5031 9.432C56.7151 8.94 57.8131 8.694 58.7971 8.694C59.6851 8.694 60.3691 8.844 60.8491 9.144C61.3411 9.444 61.6831 9.84 61.8751 10.332C62.0671 10.824 62.1631 11.352 62.1631 11.916V15.426C62.1631 15.606 62.2111 15.78 62.3071 15.948C62.4151 16.104 62.6191 16.182 62.9191 16.182H63.1171V18.09H62.7031ZM57.0511 15.408C57.0511 15.732 57.1231 15.99 57.2671 16.182C57.4111 16.362 57.6211 16.452 57.8971 16.452C58.1731 16.452 58.4851 16.38 58.8331 16.236C59.1811 16.092 59.6311 15.756 60.1831 15.228V14.454C59.5591 14.346 58.9471 14.292 58.3471 14.292C57.8791 14.292 57.5431 14.388 57.3391 14.58C57.1471 14.772 57.0511 15.048 57.0511 15.408ZM70.0622 10.764C69.4982 10.764 68.9582 10.854 68.4422 11.034C67.9382 11.202 67.4522 11.478 66.9842 11.862V18H64.9142V8.874H66.8762V10.278C67.4882 9.702 68.0342 9.294 68.5142 9.054C68.9942 8.814 69.5102 8.694 70.0622 8.694V10.764ZM77.3651 17.694C77.0531 17.838 76.6931 17.952 76.2851 18.036C75.8771 18.132 75.4631 18.18 75.0431 18.18C74.3471 18.18 73.7891 18.036 73.3691 17.748C72.9491 17.46 72.6431 17.058 72.4511 16.542C72.2711 16.026 72.1811 15.438 72.1811 14.778V10.674H70.7051V8.874H72.1811V6.498H74.2511V8.874H77.0951V10.674H74.2511V14.778C74.2511 15.33 74.3531 15.714 74.5571 15.93C74.7731 16.134 75.0791 16.236 75.4751 16.236C75.6671 16.236 75.8711 16.218 76.0871 16.182C76.3151 16.134 76.5671 16.056 76.8431 15.948L77.3651 17.694Z" fill="black"/>
</svg>
