<svg width="167" height="184" viewBox="0 0 167 184" fill="none" xmlns="http://www.w3.org/2000/svg">
<rect width="165.137" height="156" transform="translate(1 28)" fill="black"/>
<rect x="11" y="47" width="34" height="32" rx="10.1033" fill="#760A6B"/>
<rect x="50" y="47" width="34" height="32" rx="10.1033" fill="#760A6B"/>
<rect x="89" y="47" width="34" height="32" rx="10.1033" fill="#760A6B"/>
<rect x="128" y="47" width="34" height="32" rx="10.1033" fill="#760A6B"/>
<rect x="9" y="90" width="28" height="32" rx="10.1033" fill="#760A6B"/>
<rect x="43" y="90" width="34" height="32" rx="10.1033" fill="#760A6B"/>
<rect x="82" y="90" width="34" height="32" rx="10.1033" fill="#760A6B"/>
<rect x="121" y="90" width="39" height="32" rx="10.1033" fill="#760A6B"/>
<rect x="9" y="133" width="47" height="32" rx="10.1033" fill="#760A6B"/>
<rect x="61" y="133" width="47" height="32" rx="10.1033" fill="#760A6B"/>
<path d="M3.978 16.38C4.422 16.38 4.788 16.308 5.076 16.164C5.364 16.008 5.508 15.78 5.508 15.48C5.508 15.216 5.412 15.012 5.22 14.868C5.04 14.712 4.71 14.574 4.23 14.454L3.204 14.184C2.412 13.98 1.824 13.638 1.44 13.158C1.068 12.678 0.882 12.108 0.882 11.448C0.882 10.668 1.152 10.014 1.692 9.486C2.232 8.958 3.066 8.694 4.194 8.694C4.65 8.694 5.13 8.748 5.634 8.856C6.138 8.964 6.666 9.138 7.218 9.378L6.624 11.142C6.12 10.902 5.664 10.734 5.256 10.638C4.848 10.542 4.488 10.494 4.176 10.494C3.324 10.494 2.898 10.782 2.898 11.358C2.898 11.586 2.97 11.766 3.114 11.898C3.27 12.03 3.552 12.15 3.96 12.258L4.986 12.528C5.862 12.756 6.498 13.104 6.894 13.572C7.302 14.04 7.506 14.628 7.506 15.336C7.506 16.176 7.218 16.86 6.642 17.388C6.078 17.916 5.184 18.18 3.96 18.18C2.916 18.18 1.818 17.94 0.666 17.46L1.224 15.75C1.788 15.978 2.298 16.14 2.754 16.236C3.21 16.332 3.618 16.38 3.978 16.38ZM13.537 18.18C13.237 18.18 12.931 18.15 12.619 18.09C12.319 18.03 12.013 17.946 11.701 17.838V21.834H9.63098V8.874H11.593V10.116C12.157 9.552 12.637 9.174 13.033 8.982C13.429 8.79 13.843 8.694 14.275 8.694C15.271 8.694 16.039 9.066 16.579 9.81C17.119 10.554 17.389 11.598 17.389 12.942V13.914C17.389 15.222 17.059 16.26 16.399 17.028C15.739 17.796 14.785 18.18 13.537 18.18ZM13.717 10.62C13.441 10.62 13.147 10.704 12.835 10.872C12.535 11.028 12.157 11.334 11.701 11.79V15.966C12.289 16.206 12.829 16.326 13.321 16.326C14.017 16.326 14.515 16.11 14.815 15.678C15.115 15.246 15.265 14.658 15.265 13.914V12.942C15.265 12.138 15.127 11.55 14.851 11.178C14.587 10.806 14.209 10.62 13.717 10.62ZM26.7031 18.09C26.0911 18.09 25.5991 17.964 25.2271 17.712C24.8671 17.46 24.6031 17.148 24.4351 16.776C23.9191 17.256 23.4211 17.61 22.9411 17.838C22.4611 18.066 21.9451 18.18 21.3931 18.18C20.5891 18.18 19.9951 17.922 19.6111 17.406C19.2391 16.89 19.0531 16.236 19.0531 15.444C19.0531 14.916 19.1491 14.454 19.3411 14.058C19.5451 13.65 19.8751 13.332 20.3311 13.104C20.7871 12.876 21.4111 12.762 22.2031 12.762C22.5151 12.762 22.8391 12.786 23.1751 12.834C23.5111 12.87 23.8471 12.918 24.1831 12.978V11.916C24.1831 11.412 24.0451 11.07 23.7691 10.89C23.4931 10.698 23.1211 10.602 22.6531 10.602C22.2931 10.602 21.8971 10.65 21.4651 10.746C21.0451 10.842 20.5891 10.992 20.0971 11.196L19.5031 9.432C20.7151 8.94 21.8131 8.694 22.7971 8.694C23.6851 8.694 24.3691 8.844 24.8491 9.144C25.3411 9.444 25.6831 9.84 25.8751 10.332C26.0671 10.824 26.1631 11.352 26.1631 11.916V15.426C26.1631 15.606 26.2111 15.78 26.3071 15.948C26.4151 16.104 26.6191 16.182 26.9191 16.182H27.1171V18.09H26.7031ZM21.0511 15.408C21.0511 15.732 21.1231 15.99 21.2671 16.182C21.4111 16.362 21.6211 16.452 21.8971 16.452C22.1731 16.452 22.4851 16.38 22.8331 16.236C23.1811 16.092 23.6311 15.756 24.1831 15.228V14.454C23.5591 14.346 22.9471 14.292 22.3471 14.292C21.8791 14.292 21.5431 14.388 21.3391 14.58C21.1471 14.772 21.0511 15.048 21.0511 15.408ZM30.4982 12.906V13.968C30.4982 14.736 30.6362 15.312 30.9122 15.696C31.1882 16.08 31.6322 16.272 32.2442 16.272C32.5442 16.272 32.8802 16.236 33.2522 16.164C33.6362 16.08 34.0502 15.954 34.4942 15.786L35.0882 17.532C34.5482 17.748 34.0382 17.91 33.5582 18.018C33.0782 18.126 32.6042 18.18 32.1362 18.18C30.9362 18.18 30.0182 17.796 29.3822 17.028C28.7462 16.26 28.4282 15.24 28.4282 13.968V12.906C28.4282 11.622 28.7462 10.602 29.3822 9.846C30.0182 9.078 30.9362 8.694 32.1362 8.694C32.5922 8.694 33.0542 8.748 33.5222 8.856C33.9902 8.964 34.4822 9.12 34.9982 9.324L34.4042 11.106C33.5402 10.77 32.8202 10.602 32.2442 10.602C31.6322 10.602 31.1882 10.794 30.9122 11.178C30.6362 11.55 30.4982 12.126 30.4982 12.906ZM43.9125 17.478C43.2885 17.73 42.7005 17.91 42.1485 18.018C41.5965 18.126 41.0745 18.18 40.5825 18.18C39.2265 18.18 38.2005 17.796 37.5045 17.028C36.8085 16.26 36.4605 15.24 36.4605 13.968V12.888C36.4605 12.036 36.6165 11.298 36.9285 10.674C37.2405 10.05 37.6845 9.564 38.2605 9.216C38.8365 8.868 39.5145 8.694 40.2945 8.694C40.9305 8.694 41.5245 8.826 42.0765 9.09C42.6405 9.342 43.0965 9.744 43.4445 10.296C43.8045 10.836 43.9845 11.532 43.9845 12.384C43.9845 12.636 43.9665 12.906 43.9305 13.194C43.8945 13.47 43.8345 13.764 43.7505 14.076H38.4585C38.4825 14.82 38.6685 15.378 39.0165 15.75C39.3645 16.122 39.9225 16.308 40.6905 16.308C41.0985 16.308 41.5185 16.26 41.9505 16.164C42.3945 16.068 42.8505 15.924 43.3185 15.732L43.9125 17.478ZM40.2945 10.44C39.7425 10.44 39.3105 10.62 38.9985 10.98C38.6985 11.328 38.5245 11.832 38.4765 12.492H41.9325C41.9445 12.432 41.9505 12.378 41.9505 12.33C41.9505 12.27 41.9505 12.216 41.9505 12.168C41.9505 11.592 41.7885 11.16 41.4645 10.872C41.1405 10.584 40.7505 10.44 40.2945 10.44ZM45.8473 13.23V11.43H51.3193V13.23H45.8473ZM60.5586 18.09C59.9466 18.09 59.4546 17.964 59.0826 17.712C58.7226 17.46 58.4586 17.148 58.2906 16.776C57.7746 17.256 57.2766 17.61 56.7966 17.838C56.3166 18.066 55.8006 18.18 55.2486 18.18C54.4446 18.18 53.8506 17.922 53.4666 17.406C53.0946 16.89 52.9086 16.236 52.9086 15.444C52.9086 14.916 53.0046 14.454 53.1966 14.058C53.4006 13.65 53.7306 13.332 54.1866 13.104C54.6426 12.876 55.2666 12.762 56.0586 12.762C56.3706 12.762 56.6946 12.786 57.0306 12.834C57.3666 12.87 57.7026 12.918 58.0386 12.978V11.916C58.0386 11.412 57.9006 11.07 57.6246 10.89C57.3486 10.698 56.9766 10.602 56.5086 10.602C56.1486 10.602 55.7526 10.65 55.3206 10.746C54.9006 10.842 54.4446 10.992 53.9526 11.196L53.3586 9.432C54.5706 8.94 55.6686 8.694 56.6526 8.694C57.5406 8.694 58.2246 8.844 58.7046 9.144C59.1966 9.444 59.5386 9.84 59.7306 10.332C59.9226 10.824 60.0186 11.352 60.0186 11.916V15.426C60.0186 15.606 60.0666 15.78 60.1626 15.948C60.2706 16.104 60.4746 16.182 60.7746 16.182H60.9726V18.09H60.5586ZM54.9066 15.408C54.9066 15.732 54.9786 15.99 55.1226 16.182C55.2666 16.362 55.4766 16.452 55.7526 16.452C56.0286 16.452 56.3406 16.38 56.6886 16.236C57.0366 16.092 57.4866 15.756 58.0386 15.228V14.454C57.4146 14.346 56.8026 14.292 56.2026 14.292C55.7346 14.292 55.3986 14.388 55.1946 14.58C55.0026 14.772 54.9066 15.048 54.9066 15.408ZM67.9177 10.764C67.3537 10.764 66.8137 10.854 66.2977 11.034C65.7937 11.202 65.3077 11.478 64.8397 11.862V18H62.7697V8.874H64.7317V10.278C65.3437 9.702 65.8897 9.294 66.3697 9.054C66.8497 8.814 67.3657 8.694 67.9177 8.694V10.764ZM77.2006 12.888V13.968C77.2006 15.24 76.8526 16.26 76.1566 17.028C75.4606 17.796 74.4766 18.18 73.2046 18.18C71.9326 18.18 70.9486 17.796 70.2526 17.028C69.5566 16.26 69.2086 15.24 69.2086 13.968V12.888C69.2086 11.616 69.5506 10.602 70.2346 9.846C70.9306 9.078 71.9206 8.694 73.2046 8.694C74.4886 8.694 75.4726 9.078 76.1566 9.846C76.8526 10.602 77.2006 11.616 77.2006 12.888ZM75.0766 12.888C75.0766 12.156 74.9146 11.586 74.5906 11.178C74.2666 10.758 73.8046 10.548 73.2046 10.548C72.6046 10.548 72.1426 10.758 71.8186 11.178C71.4946 11.586 71.3326 12.156 71.3326 12.888V13.968C71.3326 14.7 71.4946 15.276 71.8186 15.696C72.1426 16.116 72.6046 16.326 73.2046 16.326C73.8046 16.326 74.2666 16.116 74.5906 15.696C74.9146 15.276 75.0766 14.7 75.0766 13.968V12.888ZM84.9576 18V16.794C84.4056 17.274 83.8896 17.628 83.4096 17.856C82.9296 18.072 82.4436 18.18 81.9516 18.18C81.1356 18.18 80.5056 17.904 80.0616 17.352C79.6176 16.788 79.3956 16.002 79.3956 14.994V8.874H81.4656V14.742C81.4656 15.75 81.8376 16.254 82.5816 16.254C82.8816 16.254 83.2056 16.182 83.5536 16.038C83.9136 15.894 84.3456 15.618 84.8496 15.21V8.874H86.9196V18H84.9576ZM94.2337 10.62C93.9337 10.62 93.5917 10.692 93.2077 10.836C92.8237 10.98 92.3677 11.262 91.8397 11.682V18H89.7697V8.874H91.7317V10.098C92.2957 9.606 92.8297 9.252 93.3337 9.036C93.8377 8.808 94.3477 8.694 94.8637 8.694C95.7397 8.694 96.4057 8.976 96.8617 9.54C97.3177 10.092 97.5457 10.872 97.5457 11.88V18H95.4757V12.132C95.4757 11.124 95.0617 10.62 94.2337 10.62ZM105.627 18V16.758C105.075 17.31 104.595 17.688 104.187 17.892C103.791 18.084 103.377 18.18 102.945 18.18C101.961 18.18 101.193 17.808 100.641 17.064C100.101 16.32 99.8314 15.276 99.8314 13.932V12.96C99.8314 11.652 100.161 10.614 100.821 9.846C101.481 9.078 102.435 8.694 103.683 8.694C103.995 8.694 104.301 8.724 104.601 8.784C104.913 8.844 105.219 8.928 105.519 9.036V4.68H107.589V18H105.627ZM101.955 13.932C101.955 14.736 102.087 15.324 102.351 15.696C102.627 16.068 103.011 16.254 103.503 16.254C103.779 16.254 104.073 16.176 104.385 16.02C104.697 15.852 105.075 15.54 105.519 15.084V10.908C104.931 10.668 104.391 10.548 103.899 10.548C103.203 10.548 102.705 10.764 102.405 11.196C102.105 11.628 101.955 12.216 101.955 12.96V13.932Z" fill="black"/>
</svg>
