<svg width="167" height="184" viewBox="0 0 167 184" fill="none" xmlns="http://www.w3.org/2000/svg">
<rect width="165.137" height="156" transform="translate(1 28)" fill="black"/>
<rect x="9" y="37" width="34" height="32" rx="10.1033" fill="#760A6B"/>
<rect x="48" y="37" width="34" height="32" rx="10.1033" fill="#760A6B"/>
<rect x="87" y="37" width="34" height="32" rx="10.1033" fill="#760A6B"/>
<rect x="126" y="37" width="34" height="32" rx="10.1033" fill="#760A6B"/>
<rect x="9" y="90" width="28" height="32" rx="10.1033" fill="#760A6B"/>
<rect x="43" y="90" width="34" height="32" rx="10.1033" fill="#760A6B"/>
<rect x="82" y="90" width="34" height="32" rx="10.1033" fill="#760A6B"/>
<rect x="121" y="90" width="39" height="32" rx="10.1033" fill="#760A6B"/>
<rect x="9" y="143" width="47" height="32" rx="10.1033" fill="#760A6B"/>
<rect x="61" y="143" width="47" height="32" rx="10.1033" fill="#760A6B"/>
<path d="M3.978 16.38C4.422 16.38 4.788 16.308 5.076 16.164C5.364 16.008 5.508 15.78 5.508 15.48C5.508 15.216 5.412 15.012 5.22 14.868C5.04 14.712 4.71 14.574 4.23 14.454L3.204 14.184C2.412 13.98 1.824 13.638 1.44 13.158C1.068 12.678 0.882 12.108 0.882 11.448C0.882 10.668 1.152 10.014 1.692 9.486C2.232 8.958 3.066 8.694 4.194 8.694C4.65 8.694 5.13 8.748 5.634 8.856C6.138 8.964 6.666 9.138 7.218 9.378L6.624 11.142C6.12 10.902 5.664 10.734 5.256 10.638C4.848 10.542 4.488 10.494 4.176 10.494C3.324 10.494 2.898 10.782 2.898 11.358C2.898 11.586 2.97 11.766 3.114 11.898C3.27 12.03 3.552 12.15 3.96 12.258L4.986 12.528C5.862 12.756 6.498 13.104 6.894 13.572C7.302 14.04 7.506 14.628 7.506 15.336C7.506 16.176 7.218 16.86 6.642 17.388C6.078 17.916 5.184 18.18 3.96 18.18C2.916 18.18 1.818 17.94 0.666 17.46L1.224 15.75C1.788 15.978 2.298 16.14 2.754 16.236C3.21 16.332 3.618 16.38 3.978 16.38ZM13.537 18.18C13.237 18.18 12.931 18.15 12.619 18.09C12.319 18.03 12.013 17.946 11.701 17.838V21.834H9.63098V8.874H11.593V10.116C12.157 9.552 12.637 9.174 13.033 8.982C13.429 8.79 13.843 8.694 14.275 8.694C15.271 8.694 16.039 9.066 16.579 9.81C17.119 10.554 17.389 11.598 17.389 12.942V13.914C17.389 15.222 17.059 16.26 16.399 17.028C15.739 17.796 14.785 18.18 13.537 18.18ZM13.717 10.62C13.441 10.62 13.147 10.704 12.835 10.872C12.535 11.028 12.157 11.334 11.701 11.79V15.966C12.289 16.206 12.829 16.326 13.321 16.326C14.017 16.326 14.515 16.11 14.815 15.678C15.115 15.246 15.265 14.658 15.265 13.914V12.942C15.265 12.138 15.127 11.55 14.851 11.178C14.587 10.806 14.209 10.62 13.717 10.62ZM26.7031 18.09C26.0911 18.09 25.5991 17.964 25.2271 17.712C24.8671 17.46 24.6031 17.148 24.4351 16.776C23.9191 17.256 23.4211 17.61 22.9411 17.838C22.4611 18.066 21.9451 18.18 21.3931 18.18C20.5891 18.18 19.9951 17.922 19.6111 17.406C19.2391 16.89 19.0531 16.236 19.0531 15.444C19.0531 14.916 19.1491 14.454 19.3411 14.058C19.5451 13.65 19.8751 13.332 20.3311 13.104C20.7871 12.876 21.4111 12.762 22.2031 12.762C22.5151 12.762 22.8391 12.786 23.1751 12.834C23.5111 12.87 23.8471 12.918 24.1831 12.978V11.916C24.1831 11.412 24.0451 11.07 23.7691 10.89C23.4931 10.698 23.1211 10.602 22.6531 10.602C22.2931 10.602 21.8971 10.65 21.4651 10.746C21.0451 10.842 20.5891 10.992 20.0971 11.196L19.5031 9.432C20.7151 8.94 21.8131 8.694 22.7971 8.694C23.6851 8.694 24.3691 8.844 24.8491 9.144C25.3411 9.444 25.6831 9.84 25.8751 10.332C26.0671 10.824 26.1631 11.352 26.1631 11.916V15.426C26.1631 15.606 26.2111 15.78 26.3071 15.948C26.4151 16.104 26.6191 16.182 26.9191 16.182H27.1171V18.09H26.7031ZM21.0511 15.408C21.0511 15.732 21.1231 15.99 21.2671 16.182C21.4111 16.362 21.6211 16.452 21.8971 16.452C22.1731 16.452 22.4851 16.38 22.8331 16.236C23.1811 16.092 23.6311 15.756 24.1831 15.228V14.454C23.5591 14.346 22.9471 14.292 22.3471 14.292C21.8791 14.292 21.5431 14.388 21.3391 14.58C21.1471 14.772 21.0511 15.048 21.0511 15.408ZM30.4982 12.906V13.968C30.4982 14.736 30.6362 15.312 30.9122 15.696C31.1882 16.08 31.6322 16.272 32.2442 16.272C32.5442 16.272 32.8802 16.236 33.2522 16.164C33.6362 16.08 34.0502 15.954 34.4942 15.786L35.0882 17.532C34.5482 17.748 34.0382 17.91 33.5582 18.018C33.0782 18.126 32.6042 18.18 32.1362 18.18C30.9362 18.18 30.0182 17.796 29.3822 17.028C28.7462 16.26 28.4282 15.24 28.4282 13.968V12.906C28.4282 11.622 28.7462 10.602 29.3822 9.846C30.0182 9.078 30.9362 8.694 32.1362 8.694C32.5922 8.694 33.0542 8.748 33.5222 8.856C33.9902 8.964 34.4822 9.12 34.9982 9.324L34.4042 11.106C33.5402 10.77 32.8202 10.602 32.2442 10.602C31.6322 10.602 31.1882 10.794 30.9122 11.178C30.6362 11.55 30.4982 12.126 30.4982 12.906ZM43.9125 17.478C43.2885 17.73 42.7005 17.91 42.1485 18.018C41.5965 18.126 41.0745 18.18 40.5825 18.18C39.2265 18.18 38.2005 17.796 37.5045 17.028C36.8085 16.26 36.4605 15.24 36.4605 13.968V12.888C36.4605 12.036 36.6165 11.298 36.9285 10.674C37.2405 10.05 37.6845 9.564 38.2605 9.216C38.8365 8.868 39.5145 8.694 40.2945 8.694C40.9305 8.694 41.5245 8.826 42.0765 9.09C42.6405 9.342 43.0965 9.744 43.4445 10.296C43.8045 10.836 43.9845 11.532 43.9845 12.384C43.9845 12.636 43.9665 12.906 43.9305 13.194C43.8945 13.47 43.8345 13.764 43.7505 14.076H38.4585C38.4825 14.82 38.6685 15.378 39.0165 15.75C39.3645 16.122 39.9225 16.308 40.6905 16.308C41.0985 16.308 41.5185 16.26 41.9505 16.164C42.3945 16.068 42.8505 15.924 43.3185 15.732L43.9125 17.478ZM40.2945 10.44C39.7425 10.44 39.3105 10.62 38.9985 10.98C38.6985 11.328 38.5245 11.832 38.4765 12.492H41.9325C41.9445 12.432 41.9505 12.378 41.9505 12.33C41.9505 12.27 41.9505 12.216 41.9505 12.168C41.9505 11.592 41.7885 11.16 41.4645 10.872C41.1405 10.584 40.7505 10.44 40.2945 10.44ZM45.8473 13.23V11.43H51.3193V13.23H45.8473ZM61.3326 13.914C61.3326 15.222 61.0086 16.26 60.3606 17.028C59.7126 17.796 58.7646 18.18 57.5166 18.18C56.2206 18.18 54.9066 17.82 53.5746 17.1V4.68H55.6446V10.08C56.1966 9.528 56.6706 9.162 57.0666 8.982C57.4626 8.79 57.8706 8.694 58.2906 8.694C59.2506 8.694 59.9946 9.066 60.5226 9.81C61.0626 10.554 61.3326 11.598 61.3326 12.942V13.914ZM57.7326 10.62C57.4446 10.62 57.1386 10.704 56.8146 10.872C56.5026 11.04 56.1126 11.37 55.6446 11.862V15.948C55.9686 16.08 56.2626 16.176 56.5266 16.236C56.8026 16.296 57.0726 16.326 57.3366 16.326C58.0086 16.326 58.4886 16.11 58.7766 15.678C59.0646 15.246 59.2086 14.658 59.2086 13.914V12.942C59.2086 12.138 59.0766 11.55 58.8126 11.178C58.5606 10.806 58.2006 10.62 57.7326 10.62ZM70.6489 17.478C70.0249 17.73 69.4369 17.91 68.8849 18.018C68.3329 18.126 67.8109 18.18 67.3189 18.18C65.9629 18.18 64.9369 17.796 64.2409 17.028C63.5449 16.26 63.1969 15.24 63.1969 13.968V12.888C63.1969 12.036 63.3529 11.298 63.6649 10.674C63.9769 10.05 64.4209 9.564 64.9969 9.216C65.5729 8.868 66.2509 8.694 67.0309 8.694C67.6669 8.694 68.2609 8.826 68.8129 9.09C69.3769 9.342 69.8329 9.744 70.1809 10.296C70.5409 10.836 70.7209 11.532 70.7209 12.384C70.7209 12.636 70.7029 12.906 70.6669 13.194C70.6309 13.47 70.5709 13.764 70.4869 14.076H65.1949C65.2189 14.82 65.4049 15.378 65.7529 15.75C66.1009 16.122 66.6589 16.308 67.4269 16.308C67.8349 16.308 68.2549 16.26 68.6869 16.164C69.1309 16.068 69.5869 15.924 70.0549 15.732L70.6489 17.478ZM67.0309 10.44C66.4789 10.44 66.0469 10.62 65.7349 10.98C65.4349 11.328 65.2609 11.832 65.2129 12.492H68.6689C68.6809 12.432 68.6869 12.378 68.6869 12.33C68.6869 12.27 68.6869 12.216 68.6869 12.168C68.6869 11.592 68.5249 11.16 68.2009 10.872C67.8769 10.584 67.4869 10.44 67.0309 10.44ZM78.5956 17.694C78.2836 17.838 77.9236 17.952 77.5156 18.036C77.1076 18.132 76.6936 18.18 76.2736 18.18C75.5776 18.18 75.0196 18.036 74.5996 17.748C74.1796 17.46 73.8736 17.058 73.6816 16.542C73.5016 16.026 73.4116 15.438 73.4116 14.778V10.674H71.9356V8.874H73.4116V6.498H75.4816V8.874H78.3256V10.674H75.4816V14.778C75.4816 15.33 75.5836 15.714 75.7876 15.93C76.0036 16.134 76.3096 16.236 76.7056 16.236C76.8976 16.236 77.1016 16.218 77.3176 16.182C77.5456 16.134 77.7976 16.056 78.0736 15.948L78.5956 17.694ZM91.6179 8.874L89.2779 18H87.0279L85.5159 11.142L83.9139 18H81.6639L79.3239 8.874H81.4479L82.3299 12.492L82.9419 15.786L84.4899 8.874H86.5779L88.1799 15.858L88.7559 12.51L89.6199 8.874H91.6179ZM100.286 17.478C99.6616 17.73 99.0736 17.91 98.5216 18.018C97.9696 18.126 97.4476 18.18 96.9556 18.18C95.5996 18.18 94.5736 17.796 93.8776 17.028C93.1816 16.26 92.8336 15.24 92.8336 13.968V12.888C92.8336 12.036 92.9896 11.298 93.3016 10.674C93.6136 10.05 94.0576 9.564 94.6336 9.216C95.2096 8.868 95.8876 8.694 96.6676 8.694C97.3036 8.694 97.8976 8.826 98.4496 9.09C99.0136 9.342 99.4696 9.744 99.8176 10.296C100.178 10.836 100.358 11.532 100.358 12.384C100.358 12.636 100.34 12.906 100.304 13.194C100.268 13.47 100.208 13.764 100.124 14.076H94.8316C94.8556 14.82 95.0416 15.378 95.3896 15.75C95.7376 16.122 96.2956 16.308 97.0636 16.308C97.4716 16.308 97.8916 16.26 98.3236 16.164C98.7676 16.068 99.2236 15.924 99.6916 15.732L100.286 17.478ZM96.6676 10.44C96.1156 10.44 95.6836 10.62 95.3716 10.98C95.0716 11.328 94.8976 11.832 94.8496 12.492H98.3056C98.3176 12.432 98.3236 12.378 98.3236 12.33C98.3236 12.27 98.3236 12.216 98.3236 12.168C98.3236 11.592 98.1616 11.16 97.8376 10.872C97.5136 10.584 97.1236 10.44 96.6676 10.44ZM109.672 17.478C109.048 17.73 108.46 17.91 107.908 18.018C107.356 18.126 106.834 18.18 106.342 18.18C104.986 18.18 103.96 17.796 103.264 17.028C102.568 16.26 102.22 15.24 102.22 13.968V12.888C102.22 12.036 102.376 11.298 102.688 10.674C103 10.05 103.444 9.564 104.02 9.216C104.596 8.868 105.274 8.694 106.054 8.694C106.69 8.694 107.284 8.826 107.836 9.09C108.4 9.342 108.856 9.744 109.204 10.296C109.564 10.836 109.744 11.532 109.744 12.384C109.744 12.636 109.726 12.906 109.69 13.194C109.654 13.47 109.594 13.764 109.51 14.076H104.218C104.242 14.82 104.428 15.378 104.776 15.75C105.124 16.122 105.682 16.308 106.45 16.308C106.858 16.308 107.278 16.26 107.71 16.164C108.154 16.068 108.61 15.924 109.078 15.732L109.672 17.478ZM106.054 10.44C105.502 10.44 105.07 10.62 104.758 10.98C104.458 11.328 104.284 11.832 104.236 12.492H107.692C107.704 12.432 107.71 12.378 107.71 12.33C107.71 12.27 107.71 12.216 107.71 12.168C107.71 11.592 107.548 11.16 107.224 10.872C106.9 10.584 106.51 10.44 106.054 10.44ZM116.593 10.62C116.293 10.62 115.951 10.692 115.567 10.836C115.183 10.98 114.727 11.262 114.199 11.682V18H112.129V8.874H114.091V10.098C114.655 9.606 115.189 9.252 115.693 9.036C116.197 8.808 116.707 8.694 117.223 8.694C118.099 8.694 118.765 8.976 119.221 9.54C119.677 10.092 119.905 10.872 119.905 11.88V18H117.835V12.132C117.835 11.124 117.421 10.62 116.593 10.62Z" fill="black"/>
</svg>
