<svg width="167" height="184" viewBox="0 0 167 184" fill="none" xmlns="http://www.w3.org/2000/svg">
<rect width="165.137" height="156" transform="translate(1 28)" fill="black"/>
<rect x="9" y="35" width="34" height="45" rx="10.1033" fill="#760A6B"/>
<rect x="48" y="35" width="34" height="45" rx="10.1033" fill="#760A6B"/>
<rect x="87" y="35" width="34" height="45" rx="10.1033" fill="#760A6B"/>
<rect x="126" y="35" width="34" height="45" rx="10.1033" fill="#760A6B"/>
<rect x="9" y="84" width="31" height="47" rx="10.1033" fill="#760A6B"/>
<rect x="43" y="84" width="34" height="47" rx="10.1033" fill="#760A6B"/>
<rect x="82" y="84" width="34" height="47" rx="10.1033" fill="#760A6B"/>
<rect x="121" y="85" width="39" height="45" rx="10.1033" fill="#760A6B"/>
<rect x="9" y="134" width="60" height="45" rx="12.9449" fill="#760A6B"/>
<rect x="74" y="134" width="60" height="45" rx="12.9449" fill="#760A6B"/>
<path d="M3.978 16.38C4.422 16.38 4.788 16.308 5.076 16.164C5.364 16.008 5.508 15.78 5.508 15.48C5.508 15.216 5.412 15.012 5.22 14.868C5.04 14.712 4.71 14.574 4.23 14.454L3.204 14.184C2.412 13.98 1.824 13.638 1.44 13.158C1.068 12.678 0.882 12.108 0.882 11.448C0.882 10.668 1.152 10.014 1.692 9.486C2.232 8.958 3.066 8.694 4.194 8.694C4.65 8.694 5.13 8.748 5.634 8.856C6.138 8.964 6.666 9.138 7.218 9.378L6.624 11.142C6.12 10.902 5.664 10.734 5.256 10.638C4.848 10.542 4.488 10.494 4.176 10.494C3.324 10.494 2.898 10.782 2.898 11.358C2.898 11.586 2.97 11.766 3.114 11.898C3.27 12.03 3.552 12.15 3.96 12.258L4.986 12.528C5.862 12.756 6.498 13.104 6.894 13.572C7.302 14.04 7.506 14.628 7.506 15.336C7.506 16.176 7.218 16.86 6.642 17.388C6.078 17.916 5.184 18.18 3.96 18.18C2.916 18.18 1.818 17.94 0.666 17.46L1.224 15.75C1.788 15.978 2.298 16.14 2.754 16.236C3.21 16.332 3.618 16.38 3.978 16.38ZM15.121 17.694C14.809 17.838 14.449 17.952 14.041 18.036C13.633 18.132 13.219 18.18 12.799 18.18C12.103 18.18 11.545 18.036 11.125 17.748C10.705 17.46 10.399 17.058 10.207 16.542C10.027 16.026 9.93698 15.438 9.93698 14.778V10.674H8.46098V8.874H9.93698V6.498H12.007V8.874H14.851V10.674H12.007V14.778C12.007 15.33 12.109 15.714 12.313 15.93C12.529 16.134 12.835 16.236 13.231 16.236C13.423 16.236 13.627 16.218 13.843 16.182C14.071 16.134 14.323 16.056 14.599 15.948L15.121 17.694ZM21.9333 10.764C21.3693 10.764 20.8293 10.854 20.3133 11.034C19.8093 11.202 19.3233 11.478 18.8553 11.862V18H16.7853V8.874H18.7473V10.278C19.3593 9.702 19.9053 9.294 20.3853 9.054C20.8653 8.814 21.3813 8.694 21.9333 8.694V10.764ZM30.6762 17.478C30.0522 17.73 29.4642 17.91 28.9122 18.018C28.3602 18.126 27.8382 18.18 27.3462 18.18C25.9902 18.18 24.9642 17.796 24.2682 17.028C23.5722 16.26 23.2242 15.24 23.2242 13.968V12.888C23.2242 12.036 23.3802 11.298 23.6922 10.674C24.0042 10.05 24.4482 9.564 25.0242 9.216C25.6002 8.868 26.2782 8.694 27.0582 8.694C27.6942 8.694 28.2882 8.826 28.8402 9.09C29.4042 9.342 29.8602 9.744 30.2082 10.296C30.5682 10.836 30.7482 11.532 30.7482 12.384C30.7482 12.636 30.7302 12.906 30.6942 13.194C30.6582 13.47 30.5982 13.764 30.5142 14.076H25.2222C25.2462 14.82 25.4322 15.378 25.7802 15.75C26.1282 16.122 26.6862 16.308 27.4542 16.308C27.8622 16.308 28.2822 16.26 28.7142 16.164C29.1582 16.068 29.6142 15.924 30.0822 15.732L30.6762 17.478ZM27.0582 10.44C26.5062 10.44 26.0742 10.62 25.7622 10.98C25.4622 11.328 25.2882 11.832 25.2402 12.492H28.6962C28.7082 12.432 28.7142 12.378 28.7142 12.33C28.7142 12.27 28.7142 12.216 28.7142 12.168C28.7142 11.592 28.5522 11.16 28.2282 10.872C27.9042 10.584 27.5142 10.44 27.0582 10.44ZM38.6229 17.694C38.3109 17.838 37.9509 17.952 37.5429 18.036C37.1349 18.132 36.7209 18.18 36.3009 18.18C35.6049 18.18 35.0469 18.036 34.6269 17.748C34.2069 17.46 33.9009 17.058 33.7089 16.542C33.5289 16.026 33.4389 15.438 33.4389 14.778V10.674H31.9629V8.874H33.4389V6.498H35.5089V8.874H38.3529V10.674H35.5089V14.778C35.5089 15.33 35.6109 15.714 35.8149 15.93C36.0309 16.134 36.3369 16.236 36.7329 16.236C36.9249 16.236 37.1289 16.218 37.3449 16.182C37.5729 16.134 37.8249 16.056 38.1009 15.948L38.6229 17.694ZM41.8712 12.906V13.968C41.8712 14.736 42.0092 15.312 42.2852 15.696C42.5612 16.08 43.0052 16.272 43.6172 16.272C43.9172 16.272 44.2532 16.236 44.6252 16.164C45.0092 16.08 45.4232 15.954 45.8672 15.786L46.4612 17.532C45.9212 17.748 45.4112 17.91 44.9312 18.018C44.4512 18.126 43.9772 18.18 43.5092 18.18C42.3092 18.18 41.3912 17.796 40.7552 17.028C40.1192 16.26 39.8012 15.24 39.8012 13.968V12.906C39.8012 11.622 40.1192 10.602 40.7552 9.846C41.3912 9.078 42.3092 8.694 43.5092 8.694C43.9652 8.694 44.4272 8.748 44.8952 8.856C45.3632 8.964 45.8552 9.12 46.3712 9.324L45.7772 11.106C44.9132 10.77 44.1932 10.602 43.6172 10.602C43.0052 10.602 42.5612 10.794 42.2852 11.178C42.0092 11.55 41.8712 12.126 41.8712 12.906ZM52.8196 10.62C52.5196 10.62 52.1776 10.692 51.7936 10.836C51.4096 10.98 50.9536 11.262 50.4256 11.682V18H48.3556V4.68H50.4256V10.008C50.9776 9.54 51.4936 9.204 51.9736 9C52.4536 8.796 52.9456 8.694 53.4496 8.694C54.3256 8.694 54.9916 8.976 55.4476 9.54C55.9036 10.092 56.1316 10.872 56.1316 11.88V18H54.0616V12.132C54.0616 11.124 53.6476 10.62 52.8196 10.62Z" fill="black"/>
</svg>
